<?xml version="1.0" encoding="UTF-8" standalone="no"?><!DOCTYPE svg PUBLIC "-//W3C//DTD SVG 1.1//EN" "http://www.w3.org/Graphics/SVG/1.1/DTD/svg11.dtd"><svg width="100%" height="100%" viewBox="0 0 327 408" version="1.1" xmlns="http://www.w3.org/2000/svg" xmlns:xlink="http://www.w3.org/1999/xlink" xml:space="preserve" xmlns:serif="http://www.serif.com/" style="fill-rule:evenodd;clip-rule:evenodd;stroke-linejoin:round;"><g id="Layer-1" serif:id="Layer 1"><g id="g4185"><g id="g4137"><g id="g4143"><path id="path3976" d="M326.937,244.122c0,89.677 -73.793,163.471 -163.47,163.471c-89.677,0 -163.471,-73.794 -163.471,-163.471c0,-89.677 73.794,-163.47 163.471,-163.47c89.677,0 163.47,73.793 163.47,163.47Z" style="fill:#4d4d4d;fill-rule:nonzero;"/><path id="rect4015" d="M182.257,72.518c0,-8.13 -6.601,-14.731 -14.731,-14.731l-8.127,0c-8.131,0 -14.731,6.601 -14.731,14.731l0,2.758c0,8.13 6.6,14.731 14.731,14.731l8.127,0c8.13,0 14.731,-6.601 14.731,-14.731l0,-2.758Z" style="fill:#4d4d4d;"/><path id="rect4017" d="M191.923,51.865c0,-8.604 -6.986,-15.59 -15.59,-15.59l-25.741,0c-8.605,0 -15.59,6.986 -15.59,15.59c0,8.604 6.985,15.59 15.59,15.59l25.741,0c8.604,0 15.59,-6.986 15.59,-15.59Z" style="fill:#4d4d4d;"/></g><path id="rect4021" d="M206.613,27.711c0,-11.855 -9.624,-21.48 -21.48,-21.48l-40.812,0c-11.855,0 -21.48,9.625 -21.48,21.48c0,11.855 9.625,21.48 21.48,21.48l40.812,0c11.856,0 21.48,-9.625 21.48,-21.48Z" style="fill:none;stroke:#4d4d4d;stroke-width:12.44px;"/></g><path id="path3978" d="M299.79,244.122c0,74.785 -61.539,136.323 -136.323,136.323c-74.785,0 -136.323,-61.538 -136.323,-136.323l0,0c0,-74.784 61.538,-136.323 136.323,-136.323c74.784,0 136.323,61.539 136.323,136.323l0,0Z" style="fill:#fff;fill-rule:nonzero;"/><path id="rect3984" d="M171.488,124.76c0,-4.426 -3.593,-8.019 -8.019,-8.019c-4.426,0 -8.019,3.593 -8.019,8.019l0,16.038c0,4.426 3.593,8.019 8.019,8.019c4.426,0 8.019,-3.593 8.019,-8.019l0,-16.038Z" style="fill:#4d4d4d;"/><path id="use3986" d="M171.488,344.366c0,-4.425 -3.593,-8.019 -8.019,-8.019c-4.426,0 -8.019,3.594 -8.019,8.019l0,16.039c0,4.426 3.593,8.019 8.019,8.019c4.426,0 8.019,-3.593 8.019,-8.019l0,-16.039Z" style="fill:#4d4d4d;"/><path id="use3990" d="M44.417,236.092c-4.426,0 -8.019,3.593 -8.019,8.019c0,4.426 3.593,8.019 8.019,8.019l16.038,0c4.426,0 8.019,-3.593 8.019,-8.019c0,-4.426 -3.593,-8.019 -8.019,-8.019l-16.038,0Z" style="fill:#4d4d4d;"/><path id="use3992" d="M260.314,236.092c-4.426,0 -8.019,3.593 -8.019,8.019c0,4.426 3.593,8.019 8.019,8.019l16.039,0c4.425,0 8.019,-3.593 8.019,-8.019c0,-4.426 -3.594,-8.019 -8.019,-8.019l-16.039,0Z" style="fill:#4d4d4d;"/><g id="g4285"><path id="use3996" d="M222.927,144.212c0.649,-1.123 0.263,-2.56 -0.859,-3.208c-1.123,-0.649 -2.56,-0.263 -3.209,0.859l-4.638,8.035c-0.649,1.123 -0.263,2.56 0.859,3.208c1.123,0.648 2.56,0.263 3.209,-0.859l4.638,-8.035Z" style="fill:#4d4d4d;"/><path id="use3998" d="M262.991,187.683c1.122,-0.648 1.507,-2.085 0.859,-3.208c-0.648,-1.123 -2.085,-1.508 -3.208,-0.86l-8.035,4.639c-1.122,0.648 -1.508,2.086 -0.859,3.208c0.648,1.123 2.085,1.508 3.208,0.86l8.035,-4.639Z" style="fill:#4d4d4d;"/><path id="use4002" d="M222.927,340.874c0.649,1.123 0.263,2.561 -0.859,3.209c-1.123,0.648 -2.56,0.263 -3.209,-0.86l-4.638,-8.035c-0.649,-1.122 -0.263,-2.56 0.859,-3.208c1.123,-0.648 2.56,-0.263 3.209,0.86l4.638,8.034Z" style="fill:#4d4d4d;"/><path id="use4004" d="M262.991,297.403c1.122,0.648 1.507,2.086 0.859,3.208c-0.648,1.123 -2.085,1.508 -3.208,0.86l-8.035,-4.639c-1.122,-0.648 -1.508,-2.086 -0.859,-3.208c0.648,-1.123 2.085,-1.508 3.208,-0.86l8.035,4.639Z" style="fill:#4d4d4d;"/><path id="use4006" d="M104.128,340.874c-0.648,1.123 -0.263,2.561 0.86,3.209c1.122,0.648 2.56,0.263 3.208,-0.86l4.639,-8.035c0.648,-1.122 0.263,-2.56 -0.86,-3.208c-1.122,-0.648 -2.56,-0.263 -3.208,0.86l-4.639,8.034Z" style="fill:#4d4d4d;"/><path id="use4008" d="M64.082,297.403c-1.122,0.648 -1.507,2.086 -0.859,3.208c0.648,1.123 2.086,1.508 3.208,0.86l8.035,-4.639c1.122,-0.648 1.508,-2.086 0.86,-3.208c-0.649,-1.123 -2.086,-1.508 -3.209,-0.86l-8.035,4.639Z" style="fill:#4d4d4d;"/><path id="use4010" d="M104.128,144.962c-0.648,-1.122 -0.263,-2.56 0.86,-3.208c1.122,-0.648 2.56,-0.263 3.208,0.859l4.639,8.035c0.648,1.123 0.263,2.56 -0.86,3.209c-1.122,0.648 -2.56,0.263 -3.208,-0.86l-4.639,-8.035Z" style="fill:#4d4d4d;"/><path id="use4012" d="M64.082,188.434c-1.122,-0.649 -1.507,-2.086 -0.859,-3.209c0.648,-1.122 2.086,-1.508 3.208,-0.86l8.035,4.639c1.122,0.648 1.508,2.086 0.86,3.209c-0.649,1.122 -2.086,1.508 -3.209,0.859l-8.035,-4.638Z" style="fill:#4d4d4d;"/></g><path id="path4047" d="M163.947,152.891c-3.368,0.018 -6.787,0.192 -10.242,0.559c-1.064,0.034 -2.024,0.663 -2.477,1.64c-0.454,0.959 -0.349,2.093 0.314,2.948c0.645,0.855 1.709,1.256 2.756,1.064c26.136,-2.809 49.323,5.078 68.306,23.257c0.698,0.82 1.814,1.169 2.861,0.908c1.064,-0.28 1.867,-1.117 2.094,-2.181c0.209,-1.065 -0.175,-2.164 -1.03,-2.827c-17.569,-16.819 -38.977,-25.455 -62.582,-25.368Z" style="fill:url(#_Linear1);fill-rule:nonzero;"/><path id="path4049" d="M172.251,169.675c-1.413,0.21 -2.46,1.431 -2.442,2.879c0.035,1.431 1.116,2.617 2.547,2.774c14.533,1.885 26.171,7.206 37.145,16.924c1.169,1.047 2.983,0.925 4.013,-0.244c1.047,-1.187 0.942,-2.984 -0.245,-4.031c-11.707,-10.381 -24.652,-16.295 -40.163,-18.302c-0.279,-0.052 -0.575,-0.052 -0.855,0Z" style="fill:url(#_Linear2);fill-rule:nonzero;"/><path id="path4051" d="M161.661,137.451c-9.456,0.261 -19.07,1.814 -28.631,4.658c-1.029,0.244 -1.832,1.047 -2.093,2.076c-0.262,1.03 0.069,2.111 0.855,2.827c0.785,0.697 1.901,0.907 2.896,0.54c36.412,-10.852 72.632,-1.779 99.64,24.95c1.134,1.116 2.931,1.099 4.048,-0.018c1.116,-1.116 1.099,-2.931 -0.018,-4.047c-21.285,-21.059 -48.363,-31.754 -76.697,-30.986Z" style="fill:url(#_Linear3);fill-rule:nonzero;"/><path id="path4158" d="M259.085,95.665l-5.565,22.001l21.599,16.662l20.832,-12.178c0,-10.8 -27.619,-29.556 -36.866,-26.485Z" style="fill:#4d4d4d;"/><path id="path4782" d="M258.859,166.221c-1.92,-2.198 -118.309,92.225 -118.309,92.225l4.432,5.548c0,0 115.778,-95.592 113.877,-97.773Z" style="fill:#1a1a1a;"/></g></g><defs><linearGradient id="_Linear1" x1="0" y1="0" x2="1" y2="0" gradientUnits="userSpaceOnUse" gradientTransform="matrix(-74.4312,9.1152e-15,-9.1152e-15,-74.4312,216.547,195.358)"><stop offset="0" style="stop-color:#a00;stop-opacity:1"/><stop offset="1" style="stop-color:#a00;stop-opacity:0"/></linearGradient><linearGradient id="_Linear2" x1="0" y1="0" x2="1" y2="0" gradientUnits="userSpaceOnUse" gradientTransform="matrix(-74.4312,9.1152e-15,-9.1152e-15,-74.4312,216.547,195.358)"><stop offset="0" style="stop-color:#a00;stop-opacity:1"/><stop offset="1" style="stop-color:#a00;stop-opacity:0"/></linearGradient><linearGradient id="_Linear3" x1="0" y1="0" x2="1" y2="0" gradientUnits="userSpaceOnUse" gradientTransform="matrix(-74.4312,9.1152e-15,-9.1152e-15,-74.4312,216.547,195.358)"><stop offset="0" style="stop-color:#a00;stop-opacity:1"/><stop offset="1" style="stop-color:#a00;stop-opacity:0"/></linearGradient></defs></svg>