<?xml version="1.0" encoding="UTF-8" standalone="no"?><!DOCTYPE svg PUBLIC "-//W3C//DTD SVG 1.1//EN" "http://www.w3.org/Graphics/SVG/1.1/DTD/svg11.dtd"><svg width="100%" height="100%" viewBox="0 0 4167 2500" version="1.1" xmlns="http://www.w3.org/2000/svg" xmlns:xlink="http://www.w3.org/1999/xlink" xml:space="preserve" xmlns:serif="http://www.serif.com/" style="fill-rule:evenodd;clip-rule:evenodd;"><rect x="0" y="0" width="4166.67" height="833.333" style="fill-rule:nonzero;"/><rect x="0" y="833.333" width="4166.67" height="833.333" style="fill:#d00;fill-rule:nonzero;"/><rect x="0" y="1666.67" width="4166.67" height="833.333" style="fill:#ffce00;fill-rule:nonzero;"/><g><path d="M2566.74,1242.48c0,269.94 -216.531,488.769 -483.636,488.769c-267.105,0 -483.636,-218.829 -483.636,-488.769c0,-269.939 216.531,-488.769 483.636,-488.769c267.105,0 483.637,218.83 483.637,488.769l-0.001,0Z" style="fill:#d00;fill-rule:nonzero;"/><g><path id="a" d="M2107.34,1837.6l-149.629,70.719l-15.81,-11.864l140.454,-66.214l24.985,7.359Z" style="fill:#ffc709;stroke:#ba6d00;stroke-width:5.33px;"/><path id="a1" serif:id="a" d="M2123.17,1849.47l-149.629,70.719l-15.811,-11.864l140.455,-66.214l24.985,7.359Z" style="fill:#ffc709;stroke:#ba6d00;stroke-width:5.33px;"/><path id="a2" serif:id="a" d="M2138.99,1861.27l-149.629,70.719l-15.811,-11.864l140.455,-66.215l24.985,7.36Z" style="fill:#ffc709;stroke:#ba6d00;stroke-width:5.33px;"/><path id="a3" serif:id="a" d="M2154.77,1873.12l-149.629,70.719l-15.811,-11.864l140.455,-66.215l24.985,7.36Z" style="fill:#ffc709;stroke:#ba6d00;stroke-width:5.33px;"/><path id="a4" serif:id="a" d="M2170.58,1884.96l-149.629,70.719l-15.811,-11.864l140.455,-66.215l24.985,7.36Z" style="fill:#ffc709;stroke:#ba6d00;stroke-width:5.33px;"/><path id="a5" serif:id="a" d="M2057.7,1837.51l149.629,70.719l15.81,-11.864l-140.454,-66.214l-24.985,7.359Z" style="fill:#ffc709;stroke:#ba6d00;stroke-width:5.33px;"/><path id="a6" serif:id="a" d="M2041.69,1849.41l149.629,70.719l15.81,-11.864l-140.454,-66.214l-24.985,7.359Z" style="fill:#ffc709;stroke:#ba6d00;stroke-width:5.33px;"/><path id="a7" serif:id="a" d="M2025.68,1861.3l149.629,70.719l15.81,-11.864l-140.454,-66.214l-24.985,7.359Z" style="fill:#ffc709;stroke:#ba6d00;stroke-width:5.33px;"/><path id="a8" serif:id="a" d="M2009.84,1873.09l149.629,70.719l15.811,-11.864l-140.455,-66.215l-24.985,7.36Z" style="fill:#ffc709;stroke:#ba6d00;stroke-width:5.33px;"/><path id="a9" serif:id="a" d="M1994.09,1884.82l149.629,70.719l15.811,-11.864l-140.455,-66.214l-24.985,7.359Z" style="fill:#ffc709;stroke:#ba6d00;stroke-width:5.33px;"/></g><g><path d="M2089.87,835.697l-212.725,11.426l0,125.287l212.724,11.427l23.045,0l177.373,-26.049l0,-96.043l-177.373,-26.048l-23.045,0l0.001,0Z" style="fill-rule:nonzero;stroke:#000;stroke-width:10.65px;stroke-linejoin:round;stroke-miterlimit:5;"/><path d="M2137.78,1104.57c0,-30.527 -24.784,-55.311 -55.311,-55.311c-30.527,0 -55.312,24.784 -55.312,55.311l0,515.683c0,30.527 24.785,55.312 55.312,55.312c30.527,0 55.311,-24.785 55.311,-55.312l0,-515.683Z" style="fill:#ffc709;stroke:#000;stroke-width:11.72px;stroke-linejoin:round;"/><path d="M2332.7,1249.67c-62.87,64.9 -150.878,105.31 -248.317,105.31c-69.659,0 -134.482,-20.697 -188.775,-56.171l-44.25,65.387c66.924,44.032 146.973,69.728 233.025,69.728c119.429,0 227.335,-49.439 304.529,-128.855l-56.212,-55.399Z" style="fill:#ffc709;fill-rule:nonzero;stroke:#000;stroke-width:11.72px;"/><path d="M2042.75,969.614l-304.688,562.645l344.916,-445.003l344.942,445.003l-304.662,-562.645l-40.254,56.518l-40.254,-56.518Z" style="fill:#ffc709;stroke:#000;stroke-width:11.72px;"/><path d="M2089.5,841.645l-146.122,7.001l-60.681,24.351l0,73.539l59.888,24.352l146.915,7.794l22.402,0l172.435,-25.286l0,-87.655l-172.435,-24.096l-22.402,0Z" style="fill:#ffc709;fill-rule:nonzero;"/><path d="M2133.06,1003.51c0,-27.947 -22.689,-50.636 -50.635,-50.636c-27.947,0 -50.636,22.689 -50.636,50.636l0,2.49c0,27.946 22.689,50.635 50.636,50.635c27.946,0 50.635,-22.689 50.635,-50.635l0,-2.49Z" style="fill:#ffc709;stroke:#000;stroke-width:15.1px;stroke-linejoin:round;stroke-miterlimit:5;"/><path d="M2103.94,1003.91c0,11.842 -9.603,21.442 -21.449,21.442c-11.847,0 -21.45,-9.6 -21.45,-21.442c0,-11.842 9.603,-21.443 21.45,-21.443c11.846,0 21.449,9.601 21.449,21.443Z" style="fill:#ffc709;fill-rule:nonzero;stroke:#000;stroke-width:5.05px;stroke-linejoin:round;"/></g><g id="h"><path d="M1688.62,1760.72l-191.469,-214.063l-75.146,-268.607l26.765,-248.025l122.498,-237.732l189.409,-146.139l113.234,-42.195l31.911,46.311l55.587,16.467l-31.91,26.757l-4.118,68.953l-193.527,126.585l-117.352,195.538l-11.323,220.237l58.675,191.422l224.41,214.062l-197.644,50.429Z" style="fill:#ffc709;"/><g><path id="b" d="M1451.74,1452.36c0,0 8.327,24.449 27.538,53.665c21.249,30.35 36.126,28.524 36.126,28.524c0,0 22.812,3.38 25.426,-14.434c0.615,-17.747 -11.59,-23.731 -11.604,-24.131c0.014,0.401 -13.4,-9.171 -30.552,-16.182c-14.82,-9.087 -13.883,-8.925 -22.662,-20.24c-5.633,-13.019 -3.728,-3.887 -18.21,-55.024c-14.482,-51.138 -20.758,-79.668 -21.158,-79.655l-18.191,4.199l19.061,74.529l6.651,25.39l7.575,23.359Z" style="fill:#ffc709;stroke:#ba6d00;stroke-width:5.33px;stroke-linejoin:round;"/><path id="c" d="M1441.51,1277.87l39.604,132.457c0,0 4.688,14.377 7.538,29.122c0.153,17.642 -2.978,24.683 -2.978,24.683c-0.399,0.014 -1.879,9.399 -2.733,19.025c-0.324,13.208 5.556,22.183 5.542,21.784c0.014,0.4 4.511,6.899 17.471,7.632c14.901,-0.937 16.771,-11.665 16.771,-11.665c0,0 2.265,-1.148 1.108,-16.031c-1.157,-14.883 -9.457,-38.037 -9.457,-38.037l-56.567,-178.762l-16.299,9.792Z" style="fill:#ffc709;stroke:#ba6d00;stroke-width:5.33px;stroke-linejoin:round;"/><path id="c1" serif:id="c" d="M1417.23,1245.36l34.803,133.798c0,0 4.166,14.537 6.483,29.375c-0.483,17.636 -3.866,24.559 -3.866,24.559c-0.4,0 -2.218,9.326 -3.418,18.914c-0.799,13.188 4.753,22.369 4.753,21.97c0,0.4 4.259,7.057 17.185,8.257c14.924,-0.4 17.18,-11.054 17.18,-11.054c0,0 2.305,-1.065 1.685,-15.98c-0.619,-14.915 -8.079,-38.353 -8.079,-38.353l-50.084,-180.684l-16.642,9.198Z" style="fill:#ffc709;stroke:#ba6d00;stroke-width:5.33px;stroke-linejoin:round;"/><path id="b1" serif:id="b" d="M1429.41,1441.88c0,0 8.009,24.555 26.839,54.018c20.853,30.623 35.752,28.991 35.752,28.991c0,0 22.766,3.676 25.611,-14.103c0.846,-17.738 -11.281,-23.879 -11.289,-24.279c0.008,0.4 -13.28,-9.345 -30.34,-16.577c-14.7,-9.279 -13.766,-9.105 -22.396,-20.533c-5.464,-13.091 -3.677,-3.935 -17.494,-55.256c-13.817,-51.322 -19.722,-79.931 -20.122,-79.923l-18.244,3.962l18.092,74.77l6.32,25.475l7.271,23.455Z" style="fill:#ffc709;stroke:#ba6d00;stroke-width:5.33px;stroke-linejoin:round;"/><path id="b2" serif:id="b" d="M1498.97,1362.47c0,0 6.653,24.407 22.803,53.876c17.921,30.654 31.147,29.34 31.147,29.34c0,0 20.098,4.083 22.937,-13.416c1.067,-17.499 -9.564,-23.805 -9.564,-24.2c0,0.396 -11.594,-9.492 -26.575,-16.974c-12.855,-9.455 -12.03,-9.265 -19.47,-20.721c-4.604,-13.036 -3.186,-3.959 -14.504,-54.912c-11.318,-50.953 -16.035,-79.321 -16.39,-79.321l-16.23,3.549l14.684,74.192l5.142,25.282l6.02,23.305Z" style="fill:#ffc709;stroke:#ba6d00;stroke-width:5px;stroke-linejoin:round;"/><path id="b3" serif:id="b" d="M1517.93,1365.63c0,0 7.515,24.71 25.752,54.544c20.237,31.033 35.166,29.699 35.166,29.699c0,0 22.687,4.131 25.888,-13.588c1.2,-17.717 -10.802,-24.1 -10.802,-24.5c0,0.401 -13.09,-9.608 -30.002,-17.18c-14.512,-9.571 -13.581,-9.379 -21.981,-20.977c-5.201,-13.197 -3.598,-4.007 -16.385,-55.595c-12.788,-51.587 -18.119,-80.309 -18.519,-80.309l-18.32,3.597l16.593,75.117l5.809,25.596l6.801,23.596Z" style="fill:#ffc709;stroke:#ba6d00;stroke-width:5.33px;stroke-linejoin:round;"/><path id="c2" serif:id="c" d="M1498.21,1227.27l34.802,133.798c0,0 4.166,14.537 6.484,29.375c-0.484,17.636 -3.867,24.559 -3.867,24.559c-0.399,0 -2.217,9.326 -3.417,18.914c-0.8,13.188 4.753,22.37 4.753,21.97c0,0.4 4.259,7.057 17.184,8.257c14.925,-0.4 17.181,-11.054 17.181,-11.054c0,0 2.305,-1.065 1.685,-15.98c-0.62,-14.915 -8.079,-38.353 -8.079,-38.353l-50.084,-180.684l-16.642,9.198Z" style="fill:#ffc709;stroke:#ba6d00;stroke-width:5.33px;stroke-linejoin:round;"/><path id="c3" serif:id="c" d="M1563.53,1268.4l42.885,131.432c0,0 5.044,14.256 8.26,28.925c0.591,17.634 -2.363,24.75 -2.363,24.75c-0.4,0.024 -1.646,9.443 -2.26,19.087c0.005,13.212 6.106,22.038 6.081,21.639c0.025,0.4 4.681,6.785 17.656,7.196c14.873,-1.307 16.476,-12.078 16.476,-12.078c0,0 2.236,-1.204 0.709,-16.054c-1.527,-14.849 -10.4,-37.79 -10.4,-37.79l-60.993,-177.301l-16.051,10.194Z" style="fill:#ffc709;stroke:#ba6d00;stroke-width:5.33px;stroke-linejoin:round;"/><path id="b4" serif:id="b" d="M1586.51,1441.96c0,0 8.261,24.472 27.393,53.739c21.168,30.407 36.05,28.621 36.05,28.621c0,0 22.802,3.441 25.464,-14.366c0.663,-17.745 -11.527,-23.762 -11.539,-24.161c0.012,0.4 -13.375,-9.208 -30.509,-16.264c-14.795,-9.127 -13.859,-8.963 -22.607,-20.301c-5.598,-13.035 -3.717,-3.897 -18.062,-55.074c-14.345,-51.176 -20.543,-79.723 -20.944,-79.711l-18.202,4.15l18.861,74.58l6.583,25.408l7.512,23.379Z" style="fill:#ffc709;stroke:#ba6d00;stroke-width:5.33px;stroke-linejoin:round;"/><path id="b5" serif:id="b" d="M1490.5,1396.53c0,0 7.516,24.711 25.752,54.544c20.237,31.034 35.166,29.7 35.166,29.7c0,0 22.688,4.13 25.888,-13.588c1.2,-17.717 -10.801,-24.1 -10.801,-24.5c0,0.401 -13.09,-9.609 -30.002,-17.181c-14.512,-9.571 -13.582,-9.378 -21.982,-20.976c-5.2,-13.198 -3.598,-4.008 -16.385,-55.595c-12.788,-51.588 -18.118,-80.309 -18.519,-80.309l-18.319,3.597l16.592,75.116l5.81,25.596l6.8,23.596Z" style="fill:#ffc709;stroke:#ba6d00;stroke-width:5.33px;stroke-linejoin:round;"/><path id="b6" serif:id="b" d="M1470.12,1382.3c0,0 7.516,24.711 25.753,54.544c20.236,31.034 35.165,29.7 35.165,29.7c0,0 22.688,4.13 25.888,-13.588c1.201,-17.717 -10.801,-24.1 -10.801,-24.5c0,0.401 -13.09,-9.609 -30.002,-17.18c-14.512,-9.572 -13.581,-9.379 -21.982,-20.977c-5.2,-13.198 -3.597,-4.007 -16.385,-55.595c-12.787,-51.587 -18.118,-80.309 -18.519,-80.309l-18.319,3.597l16.592,75.117l5.81,25.596l6.8,23.595Z" style="fill:#ffc709;stroke:#ba6d00;stroke-width:5.33px;stroke-linejoin:round;"/><path id="c4" serif:id="c" d="M1519.72,1239.92l34.802,133.799c0,0 4.167,14.536 6.484,29.374c-0.484,17.637 -3.866,24.56 -3.866,24.56c-0.4,0 -2.218,9.325 -3.418,18.914c-0.8,13.187 4.753,22.369 4.753,21.969c0,0.401 4.259,7.057 17.184,8.257c14.925,-0.399 17.181,-11.053 17.181,-11.053c0,0 2.305,-1.065 1.685,-15.981c-0.62,-14.915 -8.079,-38.353 -8.079,-38.353l-50.084,-180.684l-16.642,9.198Z" style="fill:#ffc709;stroke:#ba6d00;stroke-width:5.33px;stroke-linejoin:round;"/><path id="b7" serif:id="b" d="M1609.63,1448.51c0,0 9.329,24.085 29.729,52.484c22.483,29.447 37.272,27.01 37.272,27.01c0,0 22.932,2.436 24.808,-15.47c-0.117,-17.758 -12.559,-23.233 -12.589,-23.632c0.03,0.4 -13.767,-8.611 -31.194,-14.908c-15.182,-8.469 -14.24,-8.346 -23.477,-19.289c-6.166,-12.775 -3.885,-3.729 -20.465,-54.226c-16.58,-50.497 -24.027,-78.744 -24.427,-78.715l-18.002,4.946l22.12,73.679l7.693,25.095l8.532,23.026Z" style="fill:#ffc709;stroke:#ba6d00;stroke-width:5.33px;stroke-linejoin:round;"/><path d="M1589.11,1294.61l47.819,127.78c0,0 5.579,13.829 9.348,28.215c1.262,17.557 -1.419,24.9 -1.419,24.9c-0.398,0.056 -1.284,9.56 -1.531,19.238c0.507,13.19 6.935,21.513 6.895,21.116c0.04,0.397 4.932,6.399 17.904,5.769c14.802,-2.499 15.993,-13.381 15.993,-13.381c0,0 2.186,-14.18 -1.902,-28.083c-3.289,-17.503 -34.623,-74.89 -47.024,-113.683l-27.642,-84.537l-18.441,12.665l0,0.001Z" style="fill:#ffc709;stroke:#ba6d00;stroke-width:5.33px;stroke-linejoin:round;"/></g><g><path id="d" d="M1569.59,803.833c0,0 -17.97,20.323 -42.787,61.552c-24.019,40.43 -25.038,42.084 -36.232,72.445c-7.994,29.562 -8.069,39.553 -2.528,56.065c7.141,13.312 14.133,16.114 20.644,16.381c6.515,0.265 9.859,-1.52 14.649,-8.877c9.591,-21.754 -2.498,-32.673 -6.124,-50.785c-3.627,-18.111 -2.124,-4.19 -2.131,-17.603c1.993,-17.813 7.59,-22.477 9.99,-27.277c3.6,-6.798 6.135,-11.916 26.24,-41.911c20.906,-31.995 30.903,-49.575 30.903,-49.575c0,0 2.205,-7.15 -2.624,-10.654c-4.631,-3.361 -10,0.239 -10,0.239Z" style="fill:#ffc709;stroke:#ba6d00;stroke-width:5.33px;"/><path id="d1" serif:id="d" d="M1556.23,797.441c0,0 -17.97,20.322 -42.787,61.552c-24.019,40.43 -25.038,42.084 -36.231,72.445c-7.994,29.562 -8.069,39.553 -2.529,56.064c7.141,13.312 14.133,16.115 20.644,16.381c6.515,0.266 9.859,-1.519 14.649,-8.876c9.591,-21.754 -2.497,-32.674 -6.124,-50.785c-3.626,-18.111 -2.124,-4.191 -2.131,-17.603c1.993,-17.813 7.59,-22.478 9.99,-27.277c3.6,-6.798 6.135,-11.917 26.24,-41.911c20.906,-31.995 30.903,-49.575 30.903,-49.575c0,0 2.205,-7.15 -2.624,-10.654c-4.631,-3.361 -10,0.239 -10,0.239Z" style="fill:#ffc709;stroke:#ba6d00;stroke-width:5.33px;"/><path id="d2" serif:id="d" d="M1667.43,765.213c0,0 -20.457,17.819 -50.417,55.48c-29.064,36.971 -30.29,38.478 -45.33,67.13c-11.764,28.274 -13.136,38.171 -9.786,55.262c5.353,14.126 11.921,17.812 18.343,18.921c6.425,1.109 9.973,-0.227 15.678,-6.9c12.333,-20.325 1.765,-32.721 0.52,-51.15c-1.244,-18.428 -1.562,-4.431 0.173,-17.731c4.289,-17.403 10.444,-21.302 13.447,-25.749c4.452,-6.274 7.63,-11.02 31.459,-38.152c24.883,-29.011 37.078,-45.146 37.078,-45.146c0,0 3.115,-6.803 -1.218,-10.904c-4.156,-3.933 -9.947,-1.061 -9.947,-1.061Z" style="fill:#ffc709;stroke:#ba6d00;stroke-width:5.33px;"/><path id="e" d="M1604.62,765.267c0,0 -31.97,52.265 -43.539,72.281c-14.104,22.007 -26.991,53.113 -39.267,69.605c-14.825,15.655 -29.617,18.238 -39.99,28.252c-11.897,10.644 -14.091,15.809 -14.652,24.779c0.303,12.077 12.149,20.821 24.042,16.911c11.85,-1.477 24.98,-20.488 24.98,-20.488c0,0 16.931,-32.097 28.618,-54.195c25.403,-52.423 76.271,-129.724 76.271,-129.724l-16.463,-7.421Z" style="fill:#ffc709;stroke:#ba6d00;stroke-width:5.33px;"/><path id="d3" serif:id="d" d="M1539.72,797.998c0,0 -17.969,20.323 -42.787,61.552c-24.018,40.431 -25.038,42.084 -36.231,72.445c-7.994,29.562 -8.069,39.553 -2.528,56.065c7.141,13.312 14.132,16.114 20.644,16.381c6.515,0.265 9.859,-1.52 14.649,-8.877c9.591,-21.754 -2.498,-32.673 -6.124,-50.784c-3.627,-18.112 -2.125,-4.191 -2.131,-17.604c1.993,-17.813 7.589,-22.477 9.99,-27.276c3.6,-6.799 6.135,-11.917 26.24,-41.912c20.906,-31.995 30.903,-49.575 30.903,-49.575c0,0 2.205,-7.15 -2.624,-10.654c-4.632,-3.36 -10.001,0.239 -10.001,0.239Z" style="fill:#ffc709;stroke:#ba6d00;stroke-width:5.33px;"/><path id="e1" serif:id="e" d="M1702.85,772.286c0,0 -39.265,47.034 -53.635,65.145c-17.169,19.711 -34.464,48.6 -49.019,63.122c-16.954,13.322 -31.965,13.715 -43.69,22.107c-13.325,8.792 -16.25,13.581 -18.116,22.373c-1.466,11.991 8.975,22.372 21.312,20.242c11.939,0.269 27.707,-16.619 27.707,-16.619c0,0 21.44,-29.28 36.231,-49.433c32.792,-48.15 94.412,-117.19 94.412,-117.19l-15.202,-9.747Z" style="fill:#ffc709;stroke:#ba6d00;stroke-width:5.33px;"/><path id="d4" serif:id="d" d="M1680.33,775.729c0,0 -20.224,18.082 -49.696,56.126c-28.584,37.344 -29.79,38.867 -44.459,67.71c-11.398,28.424 -12.642,38.338 -9.071,55.384c5.534,14.056 12.15,17.657 18.585,18.683c6.439,1.025 9.97,-0.356 15.588,-7.102c12.07,-20.483 1.342,-32.741 -0.14,-51.152c-1.483,-18.411 -1.62,-4.411 -0.057,-17.732c4.064,-17.458 10.168,-21.436 13.114,-25.921c4.371,-6.331 7.486,-11.118 30.964,-38.555c24.506,-29.33 36.491,-45.621 36.491,-45.621c0,0 3.026,-6.842 -1.359,-10.887c-4.207,-3.879 -9.96,-0.933 -9.96,-0.933Z" style="fill:#ffc709;stroke:#ba6d00;stroke-width:5.33px;"/><path id="e2" serif:id="e" d="M1717.83,779.115c0,0 -39.265,47.034 -53.635,65.145c-17.169,19.711 -34.464,48.601 -49.019,63.123c-16.954,13.321 -31.965,13.715 -43.69,22.106c-13.325,8.793 -16.25,13.582 -18.116,22.373c-1.465,11.992 8.975,22.373 21.313,20.242c11.938,0.269 27.706,-16.619 27.706,-16.619c0,0 21.44,-29.279 36.231,-49.433c32.792,-48.15 94.412,-117.19 94.412,-117.19l-15.202,-9.747Z" style="fill:#ffc709;stroke:#ba6d00;stroke-width:5.33px;"/><path id="d5" serif:id="d" d="M1647.89,756.728c0,0 -20.298,18 -49.922,55.925c-28.734,37.228 -29.947,38.746 -44.732,67.53c-11.513,28.378 -12.796,38.287 -9.295,55.347c5.478,14.078 12.079,17.705 18.511,18.758c6.434,1.051 9.97,-0.316 15.616,-7.04c12.152,-20.434 1.474,-32.735 0.066,-51.152c-1.408,-18.417 -1.602,-4.417 0.015,-17.732c4.134,-17.441 10.254,-21.394 13.218,-25.868c4.396,-6.313 7.531,-11.087 31.119,-38.429c24.624,-29.232 36.675,-45.473 36.675,-45.473c0,0 3.054,-6.831 -1.315,-10.893c-4.191,-3.896 -9.956,-0.973 -9.956,-0.973Z" style="fill:#ffc709;stroke:#ba6d00;stroke-width:5.33px;"/><path id="e3" serif:id="e" d="M1722.13,800.798c0,0 -39.265,47.033 -53.635,65.145c-17.169,19.711 -34.464,48.6 -49.019,63.122c-16.954,13.321 -31.965,13.715 -43.69,22.107c-13.325,8.792 -16.25,13.581 -18.116,22.372c-1.465,11.992 8.975,22.373 21.313,20.242c11.938,0.27 27.706,-16.618 27.706,-16.618c0,0 21.44,-29.28 36.231,-49.433c32.792,-48.151 94.412,-117.19 94.412,-117.19l-15.202,-9.747Z" style="fill:#ffc709;stroke:#ba6d00;stroke-width:5.33px;"/><path id="e4" serif:id="e" d="M1710.17,838.948c0,0 -40.936,50.983 -55.87,70.583c-17.946,21.397 -35.546,52.415 -50.873,68.262c-18.045,14.694 -34.621,15.76 -47.143,25.062c-14.27,9.791 -17.252,14.935 -18.852,24.227c-0.988,12.626 11.103,23.047 24.632,20.278c13.214,-0.238 29.758,-18.617 29.758,-18.617c0,0 22.164,-31.607 37.456,-53.364c33.72,-51.871 98.214,-126.882 98.214,-126.882l-17.322,-9.549Z" style="fill:#ffc709;stroke:#ba6d00;stroke-width:5.77px;"/><path id="f" d="M1722.54,880.982c0,0 -5.672,6.844 -53.61,68.368c-43.834,67.342 -50.496,80.025 -50.496,80.025c0,0 -7.063,13.007 -14.207,16.905c-7.144,3.897 -19.322,3.47 -22.983,0.678c-3.49,-2.663 -5.441,-3.078 -6.637,-16.08c1.333,-7.664 3.566,-10.721 6.756,-13.595c6.484,-4.913 9.801,-5.735 17.765,-8.264c7.87,-4.081 10.898,-8.011 16.255,-15.302c10.601,-16.699 15.333,-24.863 33.14,-49.198c23.079,-32.157 41.227,-51.754 62.317,-76.958l11.7,13.421Z" style="fill:#ffc709;stroke:#ba6d00;stroke-width:5.33px;"/><path id="e5" serif:id="e" d="M1724.7,869.417c0,0 -37.455,51.557 -51.034,71.316c-16.5,21.696 -31.831,52.511 -46.131,68.733c-17.17,15.332 -34,17.598 -45.992,27.386c-13.734,10.386 -16.341,15.501 -17.185,24.454c0.064,12.078 13.291,21.069 26.866,17.415c13.468,-1.225 28.794,-19.946 28.794,-19.946c0,0 19.939,-31.72 33.7,-53.558c30.014,-51.855 89.475,-128.032 89.475,-128.032l-18.493,-7.768Z" style="fill:#ffc709;stroke:#ba6d00;stroke-width:5.79px;"/><path id="f1" serif:id="f" d="M1754.14,887.583c0,0 -5.311,7.128 -50.003,71.047c-40.294,69.517 -46.291,82.528 -46.291,82.528c0,0 -6.382,13.355 -13.314,17.616c-6.933,4.262 -19.117,4.465 -22.917,1.865c-3.623,-2.479 -5.594,-2.793 -7.46,-15.715c0.935,-7.723 3.007,-10.892 6.044,-13.927c6.221,-5.24 9.491,-6.233 17.314,-9.17c7.649,-4.482 10.469,-8.564 15.442,-16.122c9.724,-17.224 14.027,-25.622 30.552,-50.844c21.386,-33.307 38.496,-53.816 58.255,-80.076l12.378,12.798Z" style="fill:#ffc709;stroke:#ba6d00;stroke-width:5.33px;"/></g><g><path d="M2012.4,543.868c-61.414,6.468 -120.471,20.884 -176.068,42.321l4.742,9.508c55.541,-21.303 113.884,-35.22 173.031,-41.495c5.15,-0.587 4.011,-10.893 -1.705,-10.334Z" style="fill:#ffc709;fill-rule:nonzero;stroke:#ba6d00;stroke-width:4.38px;stroke-linecap:round;stroke-linejoin:round;"/><path d="M2047.92,560.274c-56.403,2.922 -101.866,11.528 -148.841,25.249c-18.258,5.238 -36.269,11.302 -54.001,18.112l4.822,9.641c63.63,-24.195 130.98,-38.539 198.952,-42.402c6.266,-0.674 5.384,-10.497 -0.932,-10.6Z" style="fill:#ffc709;fill-rule:nonzero;stroke:#ba6d00;stroke-width:4.26px;stroke-linecap:round;stroke-linejoin:round;"/><path d="M2021.81,581.741c-57.354,5.83 -114.007,19.021 -167.942,39.418l4.049,8.097c53.118,-19.979 108.905,-32.878 165.358,-38.673c5.231,-0.375 4.17,-9.325 -1.465,-8.842Z" style="fill:#ffc709;fill-rule:nonzero;stroke:#ba6d00;stroke-width:4.26px;stroke-linecap:round;stroke-linejoin:round;"/><path d="M1861.11,635.648l4.795,9.562c75.841,-27.598 143.428,-38.176 201.537,-39.898c6.024,-0.371 6.044,-10.177 -0.8,-10.547c-66.004,2.289 -141.934,17.019 -205.532,40.884l0,-0.001Z" style="fill:#ffc709;fill-rule:nonzero;stroke:#ba6d00;stroke-width:4.26px;stroke-linecap:round;stroke-linejoin:round;"/><path d="M2035.88,615.54c-50.523,4.176 -107.374,16.057 -165.972,37.66l4.902,9.775c50.395,-18.656 117.911,-33.62 162.908,-36.941c6.249,-0.925 4.779,-10.998 -1.839,-10.495l0.001,0.001Zm-156.275,56.97l4.769,9.535c51.3,-18.827 135.528,-36.646 184.433,-35.823c5.282,-0.415 4.845,-10.264 -0.452,-10.679c-61.331,-0.032 -125.45,14.01 -188.75,36.967Zm150.68,-14.222c-48.08,5.5 -95.6,16.677 -141.115,33.318l4.768,9.509c42.862,-15.481 90.178,-27.42 137.573,-32.147c7.025,-0.987 6.045,-11.123 -1.226,-10.68Zm-131.605,52.309l4.795,9.535c41.983,-15.054 108.312,-29.088 153.45,-31.429c6.561,-0.745 5.687,-10.639 -0.906,-10.813c-52.841,2.008 -110.421,16.258 -157.339,32.707Zm162.108,-9.695c-39.135,0.296 -107.704,14.711 -151.718,30.39l4.795,9.561c42.073,-14.884 111.381,-28.581 147.429,-29.431c7.266,-0.076 7.097,-10.444 -0.506,-10.52Zm-33.38,24.743c-36.698,5.227 -72.969,14.021 -107.975,26.341l4.768,9.509c33.433,-12.113 70.685,-21.051 105.418,-25.596c6.697,-1.416 5.102,-11.696 -2.211,-10.254Zm32.022,17.526c-40.426,1.446 -93.212,13.331 -131.099,26.58l4.795,9.562c35.319,-12.184 85.744,-24.013 126.463,-25.489c7.382,-0.406 6.756,-11.105 -0.16,-10.654l0.001,0.001Z" style="fill:#ffc709;fill-rule:nonzero;stroke:#ba6d00;stroke-width:4.26px;stroke-linecap:round;stroke-linejoin:round;"/><path id="g" d="M1985.2,714.13c0,0 -84.599,-17.868 -79.348,29.498c21.847,39.075 79.348,-29.498 79.348,-29.498Z" style="fill:#ffc709;stroke:#ba6d00;stroke-width:5.17px;stroke-linejoin:round;"/><path id="g1" serif:id="g" d="M1966.93,768.278c0,0 -68.618,44.418 -80.615,0.714c5.61,-41.976 80.615,-0.714 80.615,-0.714Z" style="fill:#ffc709;stroke:#ba6d00;stroke-width:4.93px;stroke-linejoin:round;"/><path id="g2" serif:id="g" d="M1915.02,710.594c0,0 -79.218,19.442 -54.808,58.507c34.981,24.98 54.808,-58.507 54.808,-58.507Z" style="fill:#ffc709;stroke:#ba6d00;stroke-width:4.9px;stroke-linejoin:round;"/><path id="g3" serif:id="g" d="M1916.54,790.929c0,0 -67.946,38.794 -76.179,-4.446c8.272,-40.437 76.179,4.446 76.179,4.446Z" style="fill:#ffc709;stroke:#ba6d00;stroke-width:4.67px;stroke-linejoin:round;"/><path id="g4" serif:id="g" d="M1863.08,727.846c0,0 -75.202,28.338 -46.676,63.341c37.195,20.068 46.676,-63.341 46.676,-63.341Z" style="fill:#ffc709;stroke:#ba6d00;stroke-width:4.81px;stroke-linejoin:round;"/><path id="g5" serif:id="g" d="M1873.74,812.361c0,0 -64.392,39.383 -71.497,-3.814c8.358,-40.531 71.497,3.814 71.497,3.814Z" style="fill:#ffc709;stroke:#ba6d00;stroke-width:4.37px;stroke-linejoin:round;"/><path id="g6" serif:id="g" d="M1813.72,750.163c0,0 -67.266,41.3 -32.294,68.302c40.315,11.36 32.294,-68.302 32.294,-68.302Z" style="fill:#ffc709;stroke:#ba6d00;stroke-width:4.61px;stroke-linejoin:round;"/><path id="g7" serif:id="g" d="M1839.78,830.124c0,0 -61.523,49.883 -76.429,8.188c1.939,-41.637 76.429,-8.188 76.429,-8.188Z" style="fill:#ffc709;stroke:#ba6d00;stroke-width:4.7px;stroke-linejoin:round;"/><path id="g8" serif:id="g" d="M1803.66,853.278c0,0 -51.761,53.412 -70.759,16.446c-3.179,-38.862 70.759,-16.446 70.759,-16.446Z" style="fill:#ffc709;stroke:#ba6d00;stroke-width:4.44px;stroke-linejoin:round;"/><path id="g9" serif:id="g" d="M1772.89,781.329c0,0 -65.623,41.236 -30.807,67.16c39.85,10.57 30.807,-67.16 30.807,-67.16Z" style="fill:#ffc709;stroke:#ba6d00;stroke-width:4.51px;stroke-linejoin:round;"/><path id="g10" serif:id="g" d="M1732.2,809.62c0,0 -59.702,48.991 -22.013,71.002c40.735,6.01 22.013,-71.002 22.013,-71.002Z" style="fill:#ffc709;stroke:#ba6d00;stroke-width:4.54px;stroke-linejoin:round;"/><path id="g11" serif:id="g" d="M1769,883.887c0,0 -51.808,57.814 -71.07,17.007c-3.366,-42.657 71.07,-17.007 71.07,-17.007Z" style="fill:#ffc709;stroke:#ba6d00;stroke-width:4.46px;stroke-linejoin:round;"/><path id="g12" serif:id="g" d="M1921.27,587.19c0,0 -92.626,-17.802 -85.464,36.07c24.973,43.906 85.464,-36.07 85.464,-36.07Z" style="fill:#ffc709;stroke:#ba6d00;stroke-width:5.68px;stroke-linejoin:round;"/><path id="g13" serif:id="g" d="M1844.49,581.541c0,0 -85.084,36.965 -49.871,75.045c44.271,20.532 49.871,-75.045 49.871,-75.045Z" style="fill:#ffc709;stroke:#ba6d00;stroke-width:5.51px;stroke-linejoin:round;"/><path id="g14" serif:id="g" d="M1795.87,603.232c0,0 -87.127,43.949 -48.813,83.736c47.015,20.323 48.813,-83.736 48.813,-83.736Z" style="fill:#ffc709;stroke:#ba6d00;stroke-width:5.94px;stroke-linejoin:round;"/><path id="g15" serif:id="g" d="M1745.49,627.879c0,0 -81.067,49.231 -41.158,84.998c46.919,16.207 41.158,-84.998 41.158,-84.998Z" style="fill:#ffc709;stroke:#ba6d00;stroke-width:5.78px;stroke-linejoin:round;"/><path id="g16" serif:id="g" d="M1693.05,660.668c0,0 -72.064,56.734 -27.997,84.327c48.107,8.528 27.997,-84.327 27.997,-84.327Z" style="fill:#ffc709;stroke:#ba6d00;stroke-width:5.43px;stroke-linejoin:round;"/><path id="g17" serif:id="g" d="M1653.19,689.64c0,0 -69.866,60.094 -25.203,86.513c48.085,6.94 25.203,-86.513 25.203,-86.513Z" style="fill:#ffc709;stroke:#ba6d00;stroke-width:5.51px;stroke-linejoin:round;"/><path id="g18" serif:id="g" d="M1615.26,717.149c0,0 -70.35,59.17 -25.905,85.904c48.026,7.371 25.905,-85.904 25.905,-85.904Z" style="fill:#ffc709;stroke:#ba6d00;stroke-width:5.49px;stroke-linejoin:round;"/><path id="g19" serif:id="g" d="M1575.66,751.966c0,0 -61.874,67.422 -14.915,88.405c48.101,1.338 14.915,-88.405 14.915,-88.405Z" style="fill:#ffc709;stroke:#ba6d00;stroke-width:5.48px;stroke-linejoin:round;"/><path id="g20" serif:id="g" d="M2007.18,645.458c0,0 -54.019,74.508 -83.626,32.065c-10.603,-47.415 83.626,-32.065 83.626,-32.065Z" style="fill:#ffc709;stroke:#ba6d00;stroke-width:5.47px;stroke-linejoin:round;"/><path id="g21" serif:id="g" d="M1965.34,608.797c0,0 -89.487,-0.384 -73.731,51.604c30.709,38.81 73.731,-51.604 73.731,-51.604Z" style="fill:#ffc709;stroke:#ba6d00;stroke-width:5.53px;stroke-linejoin:round;"/><path id="g22" serif:id="g" d="M1961.89,696.757c0,0 -84.486,44.048 -92.883,-8.919c11.657,-48.799 92.883,8.919 92.883,8.919Z" style="fill:#ffc709;stroke:#ba6d00;stroke-width:5.71px;stroke-linejoin:round;"/><path id="g23" serif:id="g" d="M1904.35,615.247c0,0 -93.015,23.773 -63.595,68.47c41.638,28.259 63.595,-68.47 63.595,-68.47Z" style="fill:#ffc709;stroke:#ba6d00;stroke-width:5.71px;stroke-linejoin:round;"/><path id="g24" serif:id="g" d="M1903.27,715.178c0,0 -84.579,47.424 -93.802,-7.97c11.061,-51.322 93.802,7.97 93.802,7.97Z" style="fill:#ffc709;stroke:#ba6d00;stroke-width:5.76px;stroke-linejoin:round;"/><path id="g25" serif:id="g" d="M1850.12,742.497c0,0 -79.359,45.773 -89.366,-5.153c9.37,-47.642 89.366,5.153 89.366,5.153Z" style="fill:#ffc709;stroke:#ba6d00;stroke-width:5.48px;stroke-linejoin:round;"/><path id="g26" serif:id="g" d="M1844.75,631.191c0,0 -96.862,37.035 -60.186,82.962c47.858,26.362 60.186,-82.962 60.186,-82.962Z" style="fill:#ffc709;stroke:#ba6d00;stroke-width:6.27px;stroke-linejoin:round;"/><path id="g27" serif:id="g" d="M1779.28,665.817c0,0 -85.006,49.392 -42.855,84.796c49.424,15.902 42.855,-84.796 42.855,-84.796Z" style="fill:#ffc709;stroke:#ba6d00;stroke-width:5.8px;stroke-linejoin:round;"/><path id="g28" serif:id="g" d="M1802.41,766.728c0,0 -72.383,55.285 -87.543,4.884c4.052,-49.267 87.543,-4.884 87.543,-4.884Z" style="fill:#ffc709;stroke:#ba6d00;stroke-width:5.36px;stroke-linejoin:round;"/><path id="g29" serif:id="g" d="M1723.75,697.4c0,0 -79.632,57.848 -34.136,89.375c50.775,11.223 34.136,-89.375 34.136,-89.375Z" style="fill:#ffc709;stroke:#ba6d00;stroke-width:5.85px;stroke-linejoin:round;"/><path id="g30" serif:id="g" d="M1676.53,728.928c0,0 -71.705,60.019 -26.458,87.007c48.911,7.381 26.458,-87.007 26.458,-87.007Z" style="fill:#ffc709;stroke:#ba6d00;stroke-width:5.56px;stroke-linejoin:round;"/><path id="g31" serif:id="g" d="M1759.59,795.068c0,0 -67.426,65.663 -90.75,18.343c-3.081,-49.173 90.75,-18.343 90.75,-18.343Z" style="fill:#ffc709;stroke:#ba6d00;stroke-width:5.66px;stroke-linejoin:round;"/></g><g><path id="g32" serif:id="g" d="M1528.17,1633.43c0,0 64.248,73.27 97.199,28.95c10.926,-48.551 -97.199,-28.95 -97.199,-28.95Z" style="fill:#ffc709;stroke:#ba6d00;stroke-width:6.23px;stroke-linejoin:round;"/><path id="g33" serif:id="g" d="M1559.54,1674.51c0,0 70.59,78.886 100.503,27.57c7.318,-54.953 -100.503,-27.57 -100.503,-27.57Z" style="fill:#ffc709;stroke:#ba6d00;stroke-width:6.38px;stroke-linejoin:round;"/><path id="g34" serif:id="g" d="M1605.87,1716.2c0,0 62.08,64.437 85.386,19.863c4.2,-46.868 -85.386,-19.863 -85.386,-19.863Z" style="fill:#ffc709;stroke:#ba6d00;stroke-width:5.36px;stroke-linejoin:round;"/><path id="g35" serif:id="g" d="M1659.29,1555.79c0,0 59.755,66.598 13.589,86.586c-47.061,0.771 -13.589,-86.586 -13.589,-86.586Z" style="fill:#ffc709;stroke:#ba6d00;stroke-width:5.36px;stroke-linejoin:round;"/><path id="g36" serif:id="g" d="M1610.07,1630.43c0,0 45.411,81.921 80.511,42.837c16.52,-46.484 -80.511,-42.837 -80.511,-42.837Z" style="fill:#ffc709;stroke:#ba6d00;stroke-width:5.57px;stroke-linejoin:round;"/><path id="g37" serif:id="g" d="M1690.04,1614.81c0,0 54.79,70.736 82.754,28.925c9.216,-46.145 -82.754,-28.925 -82.754,-28.925Z" style="fill:#ffc709;stroke:#ba6d00;stroke-width:5.36px;stroke-linejoin:round;"/><path id="g38" serif:id="g" d="M1690.24,1594.14c0,0 66.97,63.223 21.646,88.008c-47.964,5.06 -21.646,-88.008 -21.646,-88.008Z" style="fill:#ffc709;stroke:#ba6d00;stroke-width:5.54px;stroke-linejoin:round;"/><path id="g39" serif:id="g" d="M1644.18,1683.93c0,0 61.661,70.084 88.409,25.036c6.853,-48.418 -88.409,-25.036 -88.409,-25.036Z" style="fill:#ffc709;stroke:#ba6d00;stroke-width:5.62px;stroke-linejoin:round;"/><path id="g40" serif:id="g" d="M1765.85,1561.16c0,0 65.144,57.062 25.969,82.621c-42.995,6.944 -25.969,-82.621 -25.969,-82.621Z" style="fill:#ffc709;stroke:#ba6d00;stroke-width:5.3px;stroke-linejoin:round;"/><path id="g41" serif:id="g" d="M1726.48,1644.34c0,0 56.808,63.927 80.797,22.284c5.827,-44.576 -80.797,-22.284 -80.797,-22.284Z" style="fill:#ffc709;stroke:#ba6d00;stroke-width:5.13px;stroke-linejoin:round;"/><path id="g42" serif:id="g" d="M1805.27,1591.36c0,0 60.656,53.616 20.505,76.005c-42.772,5.312 -20.505,-76.005 -20.505,-76.005Z" style="fill:#ffc709;stroke:#ba6d00;stroke-width:4.81px;stroke-linejoin:round;"/><path id="g43" serif:id="g" d="M1754.3,1676.25c0,0 67.931,58.239 86.889,11.649c-0.28,-47.054 -86.889,-11.649 -86.889,-11.649Z" style="fill:#ffc709;stroke:#ba6d00;stroke-width:5.36px;stroke-linejoin:round;"/><path id="g44" serif:id="g" d="M1726.97,1632.86c0,0 74.911,54.967 32.188,85.026c-47.709,10.739 -32.188,-85.026 -32.188,-85.026Z" style="fill:#ffc709;stroke:#ba6d00;stroke-width:5.56px;stroke-linejoin:round;"/><path id="g45" serif:id="g" d="M1770,1669.21c0,0 71.407,53.923 29.926,82.381c-46.042,9.768 -29.926,-82.381 -29.926,-82.381Z" style="fill:#ffc709;stroke:#ba6d00;stroke-width:5.36px;stroke-linejoin:round;"/><path id="g46" serif:id="g" d="M1843.47,1629.38c0,0 62.89,63.648 17.739,85.833c-46.97,3.033 -17.739,-85.833 -17.739,-85.833Z" style="fill:#ffc709;stroke:#ba6d00;stroke-width:5.36px;stroke-linejoin:round;"/></g><g><path id="g47" serif:id="g" d="M1445.73,966.101c0,0 -31.63,87.517 21.657,88.537c46.404,-17.795 -21.657,-88.537 -21.657,-88.537Z" style="fill:#ffc709;stroke:#ba6d00;stroke-width:5.58px;stroke-linejoin:round;"/><path id="g48" serif:id="g" d="M1427.38,1018.11c0,0 -24.953,90.274 28.773,87.394c45.314,-21.285 -28.773,-87.394 -28.773,-87.394Z" style="fill:#ffc709;stroke:#ba6d00;stroke-width:5.63px;stroke-linejoin:round;"/><path id="g49" serif:id="g" d="M1412.49,1070.73c0,0 -20.128,90.197 36.448,84.237c46.413,-23.562 -36.448,-84.237 -36.448,-84.237Z" style="fill:#ffc709;stroke:#ba6d00;stroke-width:5.64px;stroke-linejoin:round;"/><path id="g50" serif:id="g" d="M1403.31,1123.42c0,0 -10.565,98.233 42.047,86.407c41.435,-29.636 -42.047,-86.407 -42.047,-86.407Z" style="fill:#ffc709;stroke:#ba6d00;stroke-width:5.87px;stroke-linejoin:round;"/><path id="g51" serif:id="g" d="M1397.78,1177.71c0,0 -7.013,93.75 45.419,80.703c40.548,-29.596 -45.419,-80.703 -45.419,-80.703Z" style="fill:#ffc709;stroke:#ba6d00;stroke-width:5.67px;stroke-linejoin:round;"/><path id="g52" serif:id="g" d="M1539.92,917.687c0,0 -63.42,76.776 -8.303,94.709c54.506,-2.918 8.303,-94.709 8.303,-94.709Z" style="fill:#ffc709;stroke:#ba6d00;stroke-width:5.81px;stroke-linejoin:round;"/><path id="g53" serif:id="g" d="M1599.09,984.871c0,0 -29.38,89.092 -72.057,57.681c-25.565,-42.289 72.057,-57.681 72.057,-57.681Z" style="fill:#ffc709;stroke:#ba6d00;stroke-width:5.65px;stroke-linejoin:round;"/><path id="g54" serif:id="g" d="M1499.68,975.89c0,0 -43.895,83.933 9.866,91.794c49.356,-11.939 -9.866,-91.794 -9.866,-91.794Z" style="fill:#ffc709;stroke:#ba6d00;stroke-width:5.65px;stroke-linejoin:round;"/><path id="g55" serif:id="g" d="M1599.18,1001.09c0,0 -53.174,69.236 -4.73,80.815c47.363,-6.052 4.73,-80.815 4.73,-80.815Z" style="fill:#ffc709;stroke:#ba6d00;stroke-width:4.93px;stroke-linejoin:round;"/><path id="g56" serif:id="g" d="M1654.15,1052.41c0,0 -22.483,77.47 -57.19,50.717c-21.09,-36.355 57.19,-50.717 57.19,-50.717Z" style="fill:#ffc709;stroke:#ba6d00;stroke-width:4.66px;stroke-linejoin:round;"/><path id="g57" serif:id="g" d="M1572.33,1049.47c0,0 -34.554,76.418 10.156,79.445c40.633,-13.946 -10.156,-79.445 -10.156,-79.445Z" style="fill:#ffc709;stroke:#ba6d00;stroke-width:4.88px;stroke-linejoin:round;"/><path id="g58" serif:id="g" d="M1581.31,1035.35c0,0 -24.852,89.786 -67.824,60.444c-26.743,-40.895 67.824,-60.444 67.824,-60.444Z" style="fill:#ffc709;stroke:#ba6d00;stroke-width:5.55px;stroke-linejoin:round;"/><path id="g59" serif:id="g" d="M1472.8,1035.03c0,0 -28.598,95.537 28.376,93.5c48.507,-21.773 -28.376,-93.5 -28.376,-93.5Z" style="fill:#ffc709;stroke:#ba6d00;stroke-width:5.98px;stroke-linejoin:round;"/><path id="g60" serif:id="g" d="M1639.32,1094.6c0,0 -14.692,75.025 -52.879,53.943c-25.334,-31.611 52.879,-53.943 52.879,-53.943Z" style="fill:#ffc709;stroke:#ba6d00;stroke-width:4.63px;stroke-linejoin:round;"/><path id="g61" serif:id="g" d="M1559.01,1100.97c0,0 -29.115,72.12 16.585,72.286c40.218,-15.166 -16.585,-72.286 -16.585,-72.286Z" style="fill:#ffc709;stroke:#ba6d00;stroke-width:4.54px;stroke-linejoin:round;"/><path id="g62" serif:id="g" d="M1563.42,1082.43c0,0 -9.359,93.813 -58.031,72.111c-34.276,-36.057 58.031,-72.111 58.031,-72.111Z" style="fill:#ffc709;stroke:#ba6d00;stroke-width:5.66px;stroke-linejoin:round;"/><path id="g63" serif:id="g" d="M1454.88,1092.57c0,0 -16.551,100.928 36.523,92.429c43.047,-27.729 -36.523,-92.429 -36.523,-92.429Z" style="fill:#ffc709;stroke:#ba6d00;stroke-width:6.06px;stroke-linejoin:round;"/><path id="g64" serif:id="g" d="M1630.79,1132.72c0,0 -10.494,82.195 -49.909,61.677c-27.138,-32.712 49.909,-61.677 49.909,-61.677Z" style="fill:#ffc709;stroke:#ba6d00;stroke-width:4.83px;stroke-linejoin:round;"/><path id="g65" serif:id="g" d="M1549.3,1151.62c0,0 -21.608,75.611 23.554,71.933c38.224,-18.77 -23.554,-71.933 -23.554,-71.933Z" style="fill:#ffc709;stroke:#ba6d00;stroke-width:4.63px;stroke-linejoin:round;"/><path id="g66" serif:id="g" d="M1552.28,1136.36c0,0 -2.819,93.723 -52.158,75.533c-36.159,-33.42 52.158,-75.533 52.158,-75.533Z" style="fill:#ffc709;stroke:#ba6d00;stroke-width:5.61px;stroke-linejoin:round;"/><path id="g67" serif:id="g" d="M1445.45,1155c0,0 -1.643,99.557 49.574,82.736c38.503,-33.638 -49.574,-82.736 -49.574,-82.736Z" style="fill:#ffc709;stroke:#ba6d00;stroke-width:5.88px;stroke-linejoin:round;"/><path id="g68" serif:id="g" d="M1392.42,1227.14c0,0 2.372,95.328 52.31,77.066c36.7,-33.815 -52.31,-77.066 -52.31,-77.066Z" style="fill:#ffc709;stroke:#ba6d00;stroke-width:5.69px;stroke-linejoin:round;"/><path id="g69" serif:id="g" d="M1621.92,1177.29c0,0 2.39,79.214 -41.167,66.661c-32.956,-26.145 41.167,-66.661 41.167,-66.661Z" style="fill:#ffc709;stroke:#ba6d00;stroke-width:4.8px;stroke-linejoin:round;"/><path id="g70" serif:id="g" d="M1539.51,1206.03c0,0 -9.748,82.72 38.217,70.867c37.799,-26.367 -38.217,-70.867 -38.217,-70.867Z" style="fill:#ffc709;stroke:#ba6d00;stroke-width:4.93px;stroke-linejoin:round;"/><path id="g71" serif:id="g" d="M1548.83,1185.54c0,0 4.478,94.982 -45.715,80.657c-38.341,-30.808 45.715,-80.657 45.715,-80.657Z" style="fill:#ffc709;stroke:#ba6d00;stroke-width:5.66px;stroke-linejoin:round;"/><path id="g72" serif:id="g" d="M1438.95,1212.31c0,0 7.403,95.043 55.15,74.034c34,-35.802 -55.15,-74.034 -55.15,-74.034Z" style="fill:#ffc709;stroke:#ba6d00;stroke-width:5.63px;stroke-linejoin:round;"/><path id="g73" serif:id="g" d="M1619.82,1222.03c0,0 10.986,79.48 -33.58,70.813c-35.53,-23.308 33.58,-70.813 33.58,-70.813Z" style="fill:#ffc709;stroke:#ba6d00;stroke-width:4.79px;stroke-linejoin:round;"/><path id="g74" serif:id="g" d="M1541.6,1256.09c0,0 -3.699,82.756 37.765,67.962c31.673,-28.566 -37.765,-67.962 -37.765,-67.962Z" style="fill:#ffc709;stroke:#ba6d00;stroke-width:4.73px;stroke-linejoin:round;"/><path id="g75" serif:id="g" d="M1622.36,1266.17c0,0 12.704,76.627 -32.431,67.088c-36.317,-23.352 32.431,-67.088 32.431,-67.088Z" style="fill:#ffc709;stroke:#ba6d00;stroke-width:4.56px;stroke-linejoin:round;"/><path id="g76" serif:id="g" d="M1392.87,1283.29c0,0 13.181,88.49 58.027,65.698c30.615,-35.741 -58.027,-65.698 -58.027,-65.698Z" style="fill:#ffc709;stroke:#ba6d00;stroke-width:5.36px;stroke-linejoin:round;"/></g><g><path d="M1563.32,1467.49c0,0 -50.085,0.623 -83.489,-9.965c-43.855,-11.988 -61.321,-52.503 -61.321,-52.503c0,0 -6.428,9.276 -6.028,22.475c0.4,11.998 8.974,39.693 30.502,69.012c22.329,36.118 37.527,78.703 55.532,106.671c14.403,25.169 44.802,47.941 44.802,47.941c0,0 96.738,-11.56 106.098,-13.56c12.459,-1.9 97.936,-21.597 117.118,-22.662c19.181,-1.065 62.737,1.731 62.737,1.731c0,0 -15.332,-28.234 -22.733,-33.691c-14.801,-12.258 -32.691,-17.256 -51.204,-35.157c-10.113,-11.104 -27.163,-30.762 -36.753,-41.416c-11.991,-11.454 -21.044,-22.734 -34.1,-30.078c-10.657,-6.944 -121.161,-8.798 -121.161,-8.798Z" style="stroke:#ba6d00;stroke-width:2.66px;"/><path d="M1781.97,1568.77c0,0 -35.559,0.905 -52.677,3.097c-18.92,2.995 -59.584,7.909 -92.231,11.251c-29.328,3.238 -54.174,5.129 -87.274,5.478l-60.118,-2.749c1.918,3.566 7.274,13.172 12.592,20.814c6.393,9.793 11.421,16.311 23.124,27.206c9.601,9.09 15.532,13.814 18.281,15.92c7.202,-0.801 52.683,-6.252 71.044,-8.791c30.212,-2.94 45.543,-6.984 80.328,-14.351c18.184,-3.706 60.331,-12.573 71.297,-13.175c12.366,-1.004 56.34,1.316 60.94,1.717c-3.755,-6.17 -7.476,-12.361 -11.162,-18.573c-6.817,-11.52 -12.095,-14.485 -21.685,-20.898c-3.797,-2.475 -12.148,-6.819 -12.459,-6.946Z" style="fill:#ffc709;"/><path d="M1453.91,1512.76c2.801,5.199 10.189,20.095 16.783,33.418c8.442,18.252 13.095,28.2 19.261,40.178c13.401,1 26.477,1.383 59.845,2.448c33.101,-0.349 57.928,-2.246 87.257,-5.473c32.646,-3.33 73.33,-8.215 92.249,-11.199c17.118,-2.185 53.215,-3.051 53.215,-3.051c0,0 -16.035,-9.688 -23.494,-16.08c-9.259,-8.591 -13.512,-14.724 -21.062,-22.673c-9.8,-0.799 -23.444,-0.865 -38.362,-1.93c-26.12,-1.466 -66.269,1.265 -88.648,1.265c-22.378,0 -60.208,-0.765 -92.112,-4.475c-43.304,-3.111 -53.731,-10.227 -64.932,-12.427l0,-0.001Z" style="fill:#d00;"/><path d="M1417.85,1413.99c6.632,10.264 13.309,20.722 23.985,29.43c18.113,12.929 22.782,15.498 57.783,23.706c31.533,4.992 38.634,3.61 80.676,4.905c40.974,1.261 52.809,2.216 79.314,4.359c12.813,1.037 17.103,2.112 22.622,2.998" style="fill:none;stroke:#ffc709;stroke-width:4.26px;stroke-linecap:round;"/></g></g><g id="h1" serif:id="h"><path d="M2478.1,1760.72l191.468,-214.063l75.146,-268.607l-26.764,-248.025l-122.498,-237.732l-189.41,-146.139l-113.234,-42.195l-31.911,46.311l-55.587,16.467l31.911,26.757l4.118,68.953l193.526,126.585l117.352,195.538l11.323,220.237l-58.675,191.422l-224.41,214.062l197.645,50.429Z" style="fill:#ffc709;"/><g><path id="b8" serif:id="b" d="M2714.99,1452.36c0,0 -8.327,24.449 -27.538,53.665c-21.249,30.35 -36.126,28.524 -36.126,28.524c0,0 -22.811,3.38 -25.425,-14.434c-0.616,-17.747 11.59,-23.731 11.603,-24.131c-0.013,0.401 13.4,-9.171 30.553,-16.182c14.82,-9.087 13.883,-8.925 22.661,-20.24c5.633,-13.019 3.728,-3.887 18.211,-55.024c14.482,-51.138 20.757,-79.668 21.158,-79.655l18.19,4.199l-19.061,74.529l-6.651,25.39l-7.575,23.359Z" style="fill:#ffc709;stroke:#ba6d00;stroke-width:5.33px;stroke-linejoin:round;"/><path id="c5" serif:id="c" d="M2725.22,1277.87l-39.605,132.457c0,0 -4.687,14.377 -7.538,29.122c-0.153,17.642 2.978,24.683 2.978,24.683c0.4,0.014 1.88,9.399 2.733,19.025c0.324,13.208 -5.556,22.183 -5.541,21.784c-0.015,0.4 -4.511,6.899 -17.472,7.632c-14.9,-0.937 -16.77,-11.665 -16.77,-11.665c0,0 -2.266,-1.148 -1.108,-16.031c1.157,-14.883 9.457,-38.037 9.457,-38.037l56.567,-178.762l16.299,9.792Z" style="fill:#ffc709;stroke:#ba6d00;stroke-width:5.33px;stroke-linejoin:round;"/><path id="c6" serif:id="c" d="M2749.5,1245.36l-34.802,133.798c0,0 -4.166,14.537 -6.483,29.375c0.483,17.636 3.866,24.559 3.866,24.559c0.399,0 2.217,9.326 3.417,18.914c0.8,13.188 -4.752,22.369 -4.752,21.97c0,0.4 -4.259,7.057 -17.185,8.257c-14.925,-0.4 -17.18,-11.054 -17.18,-11.054c0,0 -2.306,-1.065 -1.686,-15.98c0.62,-14.915 8.079,-38.353 8.079,-38.353l50.085,-180.684l16.641,9.198Z" style="fill:#ffc709;stroke:#ba6d00;stroke-width:5.33px;stroke-linejoin:round;"/><path id="b9" serif:id="b" d="M2737.31,1441.88c0,0 -8.008,24.555 -26.838,54.018c-20.854,30.623 -35.753,28.991 -35.753,28.991c0,0 -22.766,3.676 -25.611,-14.103c-0.845,-17.738 11.281,-23.879 11.289,-24.279c-0.008,0.4 13.28,-9.345 30.34,-16.577c14.701,-9.279 13.766,-9.105 22.397,-20.533c5.463,-13.091 3.677,-3.935 17.494,-55.256c13.817,-51.322 19.721,-79.931 20.122,-79.923l18.243,3.962l-18.091,74.77l-6.321,25.475l-7.271,23.455Z" style="fill:#ffc709;stroke:#ba6d00;stroke-width:5.33px;stroke-linejoin:round;"/><path id="b10" serif:id="b" d="M2667.76,1362.47c0,0 -6.654,24.407 -22.803,53.876c-17.922,30.654 -31.148,29.34 -31.148,29.34c0,0 -20.098,4.083 -22.937,-13.416c-1.066,-17.499 9.564,-23.805 9.564,-24.2c0,0.396 11.595,-9.492 26.576,-16.974c12.854,-9.455 12.029,-9.265 19.469,-20.721c4.604,-13.036 3.186,-3.959 14.505,-54.912c11.318,-50.953 16.034,-79.321 16.389,-79.321l16.23,3.549l-14.684,74.192l-5.142,25.282l-6.019,23.305Z" style="fill:#ffc709;stroke:#ba6d00;stroke-width:5px;stroke-linejoin:round;"/><path id="b11" serif:id="b" d="M2648.8,1365.63c0,0 -7.516,24.71 -25.753,54.544c-20.236,31.033 -35.165,29.699 -35.165,29.699c0,0 -22.688,4.131 -25.888,-13.588c-1.2,-17.717 10.801,-24.1 10.801,-24.5c0,0.401 13.09,-9.608 30.002,-17.18c14.512,-9.571 13.581,-9.379 21.982,-20.977c5.2,-13.197 3.597,-4.007 16.385,-55.595c12.787,-51.587 18.118,-80.309 18.519,-80.309l18.319,3.597l-16.592,75.117l-5.81,25.596l-6.8,23.596Z" style="fill:#ffc709;stroke:#ba6d00;stroke-width:5.33px;stroke-linejoin:round;"/><path id="c7" serif:id="c" d="M2668.51,1227.27l-34.803,133.798c0,0 -4.166,14.537 -6.483,29.375c0.483,17.636 3.866,24.559 3.866,24.559c0.4,0 2.217,9.326 3.418,18.914c0.799,13.188 -4.753,22.37 -4.753,21.97c0,0.4 -4.259,7.057 -17.185,8.257c-14.924,-0.4 -17.18,-11.054 -17.18,-11.054c0,0 -2.305,-1.065 -1.686,-15.98c0.62,-14.915 8.08,-38.353 8.08,-38.353l50.084,-180.684l16.642,9.198Z" style="fill:#ffc709;stroke:#ba6d00;stroke-width:5.33px;stroke-linejoin:round;"/><path id="c8" serif:id="c" d="M2603.19,1268.4l-42.885,131.432c0,0 -5.043,14.256 -8.26,28.925c-0.591,17.634 2.364,24.75 2.364,24.75c0.399,0.024 1.645,9.443 2.26,19.087c-0.005,13.212 -6.106,22.038 -6.082,21.639c-0.024,0.4 -4.681,6.785 -17.656,7.196c-14.872,-1.307 -16.475,-12.078 -16.475,-12.078c0,0 -2.236,-1.204 -0.709,-16.054c1.527,-14.849 10.399,-37.79 10.399,-37.79l60.993,-177.301l16.051,10.194Z" style="fill:#ffc709;stroke:#ba6d00;stroke-width:5.33px;stroke-linejoin:round;"/><path id="b12" serif:id="b" d="M2580.22,1441.96c0,0 -8.261,24.472 -27.394,53.739c-21.167,30.407 -36.049,28.621 -36.049,28.621c0,0 -22.802,3.441 -25.464,-14.366c-0.663,-17.745 11.526,-23.762 11.538,-24.161c-0.012,0.4 13.376,-9.208 30.509,-16.264c14.796,-9.127 13.859,-8.963 22.607,-20.301c5.598,-13.035 3.718,-3.897 18.063,-55.074c14.344,-51.176 20.543,-79.723 20.943,-79.711l18.202,4.15l-18.86,74.58l-6.583,25.408l-7.512,23.379Z" style="fill:#ffc709;stroke:#ba6d00;stroke-width:5.33px;stroke-linejoin:round;"/><path id="b13" serif:id="b" d="M2676.23,1396.53c0,0 -7.515,24.711 -25.752,54.544c-20.236,31.034 -35.165,29.7 -35.165,29.7c0,0 -22.688,4.13 -25.888,-13.588c-1.201,-17.717 10.801,-24.1 10.801,-24.5c0,0.401 13.09,-9.609 30.002,-17.181c14.512,-9.571 13.581,-9.378 21.982,-20.976c5.2,-13.198 3.597,-4.008 16.385,-55.595c12.787,-51.588 18.118,-80.309 18.518,-80.309l18.32,3.597l-16.592,75.116l-5.81,25.596l-6.801,23.596Z" style="fill:#ffc709;stroke:#ba6d00;stroke-width:5.33px;stroke-linejoin:round;"/><path id="b14" serif:id="b" d="M2696.61,1382.3c0,0 -7.516,24.711 -25.752,54.544c-20.237,31.034 -35.166,29.7 -35.166,29.7c0,0 -22.687,4.13 -25.888,-13.588c-1.2,-17.717 10.801,-24.1 10.801,-24.5c0,0.401 13.091,-9.609 30.002,-17.18c14.513,-9.572 13.582,-9.379 21.982,-20.977c5.2,-13.198 3.598,-4.007 16.385,-55.595c12.788,-51.587 18.118,-80.309 18.519,-80.309l18.319,3.597l-16.592,75.117l-5.81,25.596l-6.8,23.595Z" style="fill:#ffc709;stroke:#ba6d00;stroke-width:5.33px;stroke-linejoin:round;"/><path id="c9" serif:id="c" d="M2647.01,1239.92l-34.802,133.799c0,0 -4.166,14.536 -6.483,29.374c0.483,17.637 3.866,24.56 3.866,24.56c0.4,0 2.217,9.325 3.418,18.914c0.799,13.187 -4.753,22.369 -4.753,21.969c0,0.401 -4.259,7.057 -17.185,8.257c-14.925,-0.399 -17.18,-11.053 -17.18,-11.053c0,0 -2.305,-1.065 -1.686,-15.981c0.62,-14.915 8.079,-38.353 8.079,-38.353l50.085,-180.684l16.641,9.198Z" style="fill:#ffc709;stroke:#ba6d00;stroke-width:5.33px;stroke-linejoin:round;"/><path id="b15" serif:id="b" d="M2557.1,1448.51c0,0 -9.328,24.085 -29.728,52.484c-22.484,29.447 -37.273,27.01 -37.273,27.01c0,0 -22.931,2.436 -24.808,-15.47c0.118,-17.758 12.56,-23.233 12.589,-23.632c-0.029,0.4 13.767,-8.611 31.194,-14.908c15.183,-8.469 14.24,-8.346 23.478,-19.289c6.165,-12.775 3.885,-3.729 20.465,-54.226c16.58,-50.497 24.027,-78.744 24.426,-78.715l18.002,4.946l-22.12,73.679l-7.693,25.095l-8.532,23.026Z" style="fill:#ffc709;stroke:#ba6d00;stroke-width:5.33px;stroke-linejoin:round;"/><path d="M2577.62,1294.61l-47.819,127.78c0,0 -5.579,13.829 -9.348,28.215c-1.261,17.557 1.419,24.9 1.419,24.9c0.398,0.056 1.285,9.56 1.531,19.238c-0.506,13.19 -6.934,21.513 -6.895,21.116c-0.039,0.397 -4.932,6.399 -17.903,5.769c-14.802,-2.499 -15.993,-13.381 -15.993,-13.381c0,0 -2.187,-14.18 1.902,-28.083c3.289,-17.503 34.622,-74.89 47.024,-113.683l27.641,-84.537l18.441,12.665l0,0.001Z" style="fill:#ffc709;stroke:#ba6d00;stroke-width:5.33px;stroke-linejoin:round;"/></g><g><path id="d6" serif:id="d" d="M2597.14,803.833c0,0 17.97,20.323 42.787,61.552c24.018,40.43 25.038,42.084 36.231,72.445c7.994,29.562 8.069,39.553 2.529,56.065c-7.142,13.312 -14.133,16.114 -20.644,16.381c-6.515,0.265 -9.86,-1.52 -14.65,-8.877c-9.59,-21.754 2.498,-32.673 6.125,-50.785c3.626,-18.111 2.124,-4.19 2.131,-17.603c-1.993,-17.813 -7.59,-22.477 -9.991,-27.277c-3.6,-6.798 -6.134,-11.916 -26.24,-41.911c-20.905,-31.995 -30.903,-49.575 -30.903,-49.575c0,0 -2.204,-7.15 2.624,-10.654c4.632,-3.361 10.001,0.239 10.001,0.239Z" style="fill:#ffc709;stroke:#ba6d00;stroke-width:5.33px;"/><path id="d7" serif:id="d" d="M2610.49,797.441c0,0 17.97,20.322 42.787,61.552c24.018,40.43 25.038,42.084 36.231,72.445c7.994,29.562 8.069,39.553 2.529,56.064c-7.142,13.312 -14.133,16.115 -20.645,16.381c-6.514,0.266 -9.859,-1.519 -14.649,-8.876c-9.591,-21.754 2.498,-32.674 6.124,-50.785c3.627,-18.111 2.125,-4.191 2.132,-17.603c-1.994,-17.813 -7.59,-22.478 -9.991,-27.277c-3.6,-6.798 -6.134,-11.917 -26.24,-41.911c-20.906,-31.995 -30.903,-49.575 -30.903,-49.575c0,0 -2.204,-7.15 2.624,-10.654c4.632,-3.361 10.001,0.239 10.001,0.239Z" style="fill:#ffc709;stroke:#ba6d00;stroke-width:5.33px;"/><path id="d8" serif:id="d" d="M2499.29,765.213c0,0 20.456,17.819 50.416,55.48c29.064,36.971 30.29,38.478 45.33,67.13c11.765,28.274 13.136,38.171 9.787,55.262c-5.353,14.126 -11.922,17.812 -18.343,18.921c-6.425,1.109 -9.973,-0.227 -15.678,-6.9c-12.334,-20.325 -1.765,-32.721 -0.521,-51.15c1.244,-18.428 1.562,-4.431 -0.172,-17.731c-4.289,-17.403 -10.444,-21.302 -13.447,-25.749c-4.453,-6.274 -7.63,-11.02 -31.46,-38.152c-24.883,-29.011 -37.078,-45.146 -37.078,-45.146c0,0 -3.114,-6.803 1.219,-10.904c4.156,-3.933 9.947,-1.061 9.947,-1.061Z" style="fill:#ffc709;stroke:#ba6d00;stroke-width:5.33px;"/><path id="e6" serif:id="e" d="M2562.11,765.267c0,0 31.97,52.265 43.538,72.281c14.104,22.007 26.991,53.113 39.267,69.605c14.826,15.655 29.618,18.238 39.991,28.252c11.897,10.644 14.09,15.809 14.651,24.779c-0.303,12.077 -12.148,20.821 -24.042,16.911c-11.85,-1.477 -24.98,-20.488 -24.98,-20.488c0,0 -16.931,-32.097 -28.617,-54.195c-25.403,-52.423 -76.271,-129.724 -76.271,-129.724l16.463,-7.421Z" style="fill:#ffc709;stroke:#ba6d00;stroke-width:5.33px;"/><path id="d9" serif:id="d" d="M2627,797.998c0,0 17.97,20.323 42.787,61.552c24.018,40.431 25.038,42.084 36.231,72.445c7.994,29.562 8.069,39.553 2.529,56.065c-7.142,13.312 -14.133,16.114 -20.644,16.381c-6.515,0.265 -9.859,-1.52 -14.65,-8.877c-9.59,-21.754 2.498,-32.673 6.125,-50.784c3.626,-18.112 2.124,-4.191 2.131,-17.604c-1.993,-17.813 -7.59,-22.477 -9.99,-27.276c-3.601,-6.799 -6.135,-11.917 -26.24,-41.912c-20.906,-31.995 -30.904,-49.575 -30.904,-49.575c0,0 -2.204,-7.15 2.624,-10.654c4.632,-3.36 10.001,0.239 10.001,0.239Z" style="fill:#ffc709;stroke:#ba6d00;stroke-width:5.33px;"/><path id="e7" serif:id="e" d="M2463.88,772.286c0,0 39.265,47.034 53.635,65.145c17.169,19.711 34.464,48.6 49.018,63.122c16.955,13.322 31.966,13.715 43.691,22.107c13.325,8.792 16.249,13.581 18.116,22.373c1.465,11.991 -8.976,22.372 -21.313,20.242c-11.938,0.269 -27.706,-16.619 -27.706,-16.619c0,0 -21.441,-29.28 -36.231,-49.433c-32.793,-48.15 -94.412,-117.19 -94.412,-117.19l15.202,-9.747Z" style="fill:#ffc709;stroke:#ba6d00;stroke-width:5.33px;"/><path id="d10" serif:id="d" d="M2486.39,775.729c0,0 20.224,18.082 49.695,56.126c28.584,37.344 29.79,38.867 44.459,67.71c11.398,28.424 12.642,38.338 9.072,55.384c-5.535,14.056 -12.15,17.657 -18.586,18.683c-6.439,1.025 -9.969,-0.356 -15.587,-7.102c-12.071,-20.483 -1.343,-32.741 0.14,-51.152c1.482,-18.411 1.619,-4.411 0.056,-17.732c-4.063,-17.458 -10.167,-21.436 -13.113,-25.921c-4.371,-6.331 -7.487,-11.118 -30.964,-38.555c-24.506,-29.33 -36.492,-45.621 -36.492,-45.621c0,0 -3.026,-6.842 1.36,-10.887c4.206,-3.879 9.96,-0.933 9.96,-0.933Z" style="fill:#ffc709;stroke:#ba6d00;stroke-width:5.33px;"/><path id="e8" serif:id="e" d="M2448.9,779.115c0,0 39.266,47.034 53.635,65.145c17.17,19.711 34.464,48.601 49.019,63.123c16.955,13.321 31.965,13.715 43.691,22.106c13.324,8.793 16.249,13.582 18.115,22.373c1.466,11.992 -8.975,22.373 -21.312,20.242c-11.939,0.269 -27.706,-16.619 -27.706,-16.619c0,0 -21.441,-29.279 -36.232,-49.433c-32.792,-48.15 -94.412,-117.19 -94.412,-117.19l15.202,-9.747Z" style="fill:#ffc709;stroke:#ba6d00;stroke-width:5.33px;"/><path id="d11" serif:id="d" d="M2518.84,756.728c0,0 20.297,18 49.921,55.925c28.735,37.228 29.947,38.746 44.732,67.53c11.513,28.378 12.797,38.287 9.295,55.347c-5.478,14.078 -12.079,17.705 -18.51,18.758c-6.435,1.051 -9.971,-0.316 -15.616,-7.04c-12.153,-20.434 -1.475,-32.735 -0.066,-51.152c1.408,-18.417 1.601,-4.417 -0.015,-17.732c-4.134,-17.441 -10.254,-21.394 -13.218,-25.868c-4.396,-6.313 -7.532,-11.087 -31.119,-38.429c-24.624,-29.232 -36.676,-45.473 -36.676,-45.473c0,0 -3.053,-6.831 1.316,-10.893c4.191,-3.896 9.956,-0.973 9.956,-0.973Z" style="fill:#ffc709;stroke:#ba6d00;stroke-width:5.33px;"/><path id="e9" serif:id="e" d="M2444.59,800.798c0,0 39.266,47.033 53.635,65.145c17.17,19.711 34.464,48.6 49.019,63.122c16.955,13.321 31.965,13.715 43.691,22.107c13.324,8.792 16.249,13.581 18.115,22.372c1.466,11.992 -8.975,22.373 -21.312,20.242c-11.939,0.27 -27.706,-16.618 -27.706,-16.618c0,0 -21.441,-29.28 -36.232,-49.433c-32.792,-48.151 -94.411,-117.19 -94.411,-117.19l15.201,-9.747Z" style="fill:#ffc709;stroke:#ba6d00;stroke-width:5.33px;"/><path id="e10" serif:id="e" d="M2456.55,838.948c0,0 40.937,50.983 55.871,70.583c17.945,21.397 35.545,52.415 50.873,68.262c18.044,14.694 34.621,15.76 47.143,25.062c14.269,9.791 17.251,14.935 18.851,24.227c0.989,12.626 -11.102,23.047 -24.631,20.278c-13.215,-0.238 -29.759,-18.617 -29.759,-18.617c0,0 -22.163,-31.607 -37.455,-53.364c-33.721,-51.871 -98.214,-126.882 -98.214,-126.882l17.321,-9.549Z" style="fill:#ffc709;stroke:#ba6d00;stroke-width:5.77px;"/><path id="f2" serif:id="f" d="M2444.18,880.982c0,0 5.673,6.844 53.61,68.368c43.834,67.342 50.496,80.025 50.496,80.025c0,0 7.064,13.007 14.208,16.905c7.143,3.897 19.321,3.47 22.982,0.678c3.49,-2.663 5.442,-3.078 6.637,-16.08c-1.332,-7.664 -3.566,-10.721 -6.755,-13.595c-6.484,-4.913 -9.802,-5.735 -17.766,-8.264c-7.87,-4.081 -10.897,-8.011 -16.255,-15.302c-10.601,-16.699 -15.333,-24.863 -33.14,-49.198c-23.079,-32.157 -41.227,-51.754 -62.317,-76.958l-11.7,13.421Z" style="fill:#ffc709;stroke:#ba6d00;stroke-width:5.33px;"/><path id="e11" serif:id="e" d="M2442.02,869.417c0,0 37.456,51.557 51.035,71.316c16.5,21.696 31.83,52.511 46.13,68.733c17.171,15.332 34.001,17.598 45.993,27.386c13.734,10.386 16.34,15.501 17.184,24.454c-0.063,12.078 -13.29,21.069 -26.865,17.415c-13.468,-1.225 -28.795,-19.946 -28.795,-19.946c0,0 -19.938,-31.72 -33.7,-53.558c-30.014,-51.855 -89.474,-128.032 -89.474,-128.032l18.492,-7.768Z" style="fill:#ffc709;stroke:#ba6d00;stroke-width:5.79px;"/><path id="f3" serif:id="f" d="M2412.59,887.583c0,0 5.312,7.128 50.004,71.047c40.293,69.517 46.291,82.528 46.291,82.528c0,0 6.381,13.355 13.314,17.616c6.932,4.262 19.116,4.465 22.917,1.865c3.623,-2.479 5.593,-2.793 7.459,-15.715c-0.934,-7.723 -3.007,-10.892 -6.043,-13.927c-6.222,-5.24 -9.492,-6.233 -17.314,-9.17c-7.649,-4.482 -10.469,-8.564 -15.443,-16.122c-9.723,-17.224 -14.027,-25.622 -30.552,-50.844c-21.385,-33.307 -38.496,-53.816 -58.254,-80.076l-12.379,12.798Z" style="fill:#ffc709;stroke:#ba6d00;stroke-width:5.33px;"/></g><g><path d="M2154.32,543.868c61.413,6.468 120.471,20.884 176.068,42.321l-4.743,9.508c-55.54,-21.303 -113.884,-35.22 -173.03,-41.495c-5.151,-0.587 -4.011,-10.893 1.705,-10.334Z" style="fill:#ffc709;fill-rule:nonzero;stroke:#ba6d00;stroke-width:4.38px;stroke-linecap:round;stroke-linejoin:round;"/><path d="M2118.81,560.274c56.403,2.922 101.866,11.528 148.842,25.249c18.258,5.238 36.268,11.302 54,18.112l-4.821,9.641c-63.631,-24.195 -130.981,-38.539 -198.953,-42.402c-6.265,-0.674 -5.383,-10.497 0.932,-10.6Z" style="fill:#ffc709;fill-rule:nonzero;stroke:#ba6d00;stroke-width:4.26px;stroke-linecap:round;stroke-linejoin:round;"/><path d="M2144.92,581.741c57.355,5.83 114.007,19.021 167.943,39.418l-4.05,8.097c-53.117,-19.979 -108.905,-32.878 -165.358,-38.673c-5.23,-0.375 -4.17,-9.325 1.465,-8.842Z" style="fill:#ffc709;fill-rule:nonzero;stroke:#ba6d00;stroke-width:4.26px;stroke-linecap:round;stroke-linejoin:round;"/><path d="M2305.61,635.648l-4.794,9.562c-75.841,-27.598 -143.429,-38.176 -201.537,-39.898c-6.025,-0.371 -6.044,-10.177 0.8,-10.547c66.004,2.289 141.934,17.019 205.531,40.884l0,-0.001Z" style="fill:#ffc709;fill-rule:nonzero;stroke:#ba6d00;stroke-width:4.26px;stroke-linecap:round;stroke-linejoin:round;"/><path d="M2130.85,615.54c50.522,4.176 107.374,16.057 165.971,37.66l-4.902,9.775c-50.394,-18.656 -117.91,-33.62 -162.907,-36.941c-6.25,-0.925 -4.779,-10.998 1.839,-10.495l-0.001,0.001Zm156.274,56.97l-4.769,9.535c-51.3,-18.827 -135.528,-36.646 -184.432,-35.823c-5.282,-0.415 -4.846,-10.264 0.452,-10.679c61.33,-0.032 125.449,14.01 188.749,36.967Zm-150.679,-14.222c48.079,5.5 95.599,16.677 141.115,33.318l-4.768,9.509c-42.862,-15.481 -90.178,-27.42 -137.573,-32.147c-7.026,-0.987 -6.045,-11.123 1.226,-10.68Zm131.604,52.309l-4.795,9.535c-41.982,-15.054 -108.312,-29.088 -153.45,-31.429c-6.561,-0.745 -5.687,-10.639 0.906,-10.813c52.842,2.008 110.421,16.258 157.339,32.707Zm-162.108,-9.695c39.135,0.296 107.704,14.711 151.718,30.39l-4.794,9.561c-42.074,-14.884 -111.382,-28.581 -147.43,-29.431c-7.266,-0.076 -7.097,-10.444 0.506,-10.52Zm33.381,24.743c36.698,5.227 72.969,14.021 107.974,26.341l-4.768,9.509c-33.432,-12.113 -70.685,-21.051 -105.417,-25.596c-6.698,-1.416 -5.103,-11.696 2.211,-10.254Zm-32.022,17.526c40.425,1.446 93.212,13.331 131.099,26.58l-4.796,9.562c-35.319,-12.184 -85.743,-24.013 -126.463,-25.489c-7.382,-0.406 -6.756,-11.105 0.16,-10.654l0,0.001Z" style="fill:#ffc709;fill-rule:nonzero;stroke:#ba6d00;stroke-width:4.26px;stroke-linecap:round;stroke-linejoin:round;"/><path id="g77" serif:id="g" d="M2181.52,714.13c0,0 84.599,-17.868 79.348,29.498c-21.848,39.075 -79.348,-29.498 -79.348,-29.498Z" style="fill:#ffc709;stroke:#ba6d00;stroke-width:5.17px;stroke-linejoin:round;"/><path id="g78" serif:id="g" d="M2199.8,768.278c0,0 68.617,44.418 80.615,0.714c-5.611,-41.976 -80.615,-0.714 -80.615,-0.714Z" style="fill:#ffc709;stroke:#ba6d00;stroke-width:4.93px;stroke-linejoin:round;"/><path id="g79" serif:id="g" d="M2251.71,710.594c0,0 79.218,19.442 54.807,58.507c-34.98,24.98 -54.807,-58.507 -54.807,-58.507Z" style="fill:#ffc709;stroke:#ba6d00;stroke-width:4.9px;stroke-linejoin:round;"/><path id="g80" serif:id="g" d="M2250.19,790.929c0,0 67.945,38.794 76.178,-4.446c-8.272,-40.437 -76.178,4.446 -76.178,4.446Z" style="fill:#ffc709;stroke:#ba6d00;stroke-width:4.67px;stroke-linejoin:round;"/><path id="g81" serif:id="g" d="M2303.65,727.846c0,0 75.201,28.338 46.675,63.341c-37.195,20.068 -46.675,-63.341 -46.675,-63.341Z" style="fill:#ffc709;stroke:#ba6d00;stroke-width:4.81px;stroke-linejoin:round;"/><path id="g82" serif:id="g" d="M2292.98,812.361c0,0 64.391,39.383 71.496,-3.814c-8.358,-40.531 -71.496,3.814 -71.496,3.814Z" style="fill:#ffc709;stroke:#ba6d00;stroke-width:4.37px;stroke-linejoin:round;"/><path id="g83" serif:id="g" d="M2353,750.163c0,0 67.266,41.3 32.293,68.302c-40.314,11.36 -32.293,-68.302 -32.293,-68.302Z" style="fill:#ffc709;stroke:#ba6d00;stroke-width:4.61px;stroke-linejoin:round;"/><path id="g84" serif:id="g" d="M2326.95,830.124c0,0 61.524,49.883 76.43,8.188c-1.939,-41.637 -76.43,-8.188 -76.43,-8.188Z" style="fill:#ffc709;stroke:#ba6d00;stroke-width:4.7px;stroke-linejoin:round;"/><path id="g85" serif:id="g" d="M2363.06,853.278c0,0 51.761,53.412 70.759,16.446c3.178,-38.862 -70.759,-16.446 -70.759,-16.446Z" style="fill:#ffc709;stroke:#ba6d00;stroke-width:4.44px;stroke-linejoin:round;"/><path id="g86" serif:id="g" d="M2393.84,781.329c0,0 65.623,41.236 30.806,67.16c-39.85,10.57 -30.806,-67.16 -30.806,-67.16Z" style="fill:#ffc709;stroke:#ba6d00;stroke-width:4.51px;stroke-linejoin:round;"/><path id="g87" serif:id="g" d="M2434.53,809.62c0,0 59.701,48.991 22.012,71.002c-40.735,6.01 -22.012,-71.002 -22.012,-71.002Z" style="fill:#ffc709;stroke:#ba6d00;stroke-width:4.54px;stroke-linejoin:round;"/><path id="g88" serif:id="g" d="M2397.72,883.887c0,0 51.807,57.814 71.069,17.007c3.366,-42.657 -71.069,-17.007 -71.069,-17.007Z" style="fill:#ffc709;stroke:#ba6d00;stroke-width:4.46px;stroke-linejoin:round;"/><path id="g89" serif:id="g" d="M2245.46,587.19c0,0 92.625,-17.802 85.463,36.07c-24.973,43.906 -85.463,-36.07 -85.463,-36.07Z" style="fill:#ffc709;stroke:#ba6d00;stroke-width:5.68px;stroke-linejoin:round;"/><path id="g90" serif:id="g" d="M2322.24,581.541c0,0 85.084,36.965 49.871,75.045c-44.271,20.532 -49.871,-75.045 -49.871,-75.045Z" style="fill:#ffc709;stroke:#ba6d00;stroke-width:5.51px;stroke-linejoin:round;"/><path id="g91" serif:id="g" d="M2370.86,603.232c0,0 87.127,43.949 48.813,83.736c-47.015,20.323 -48.813,-83.736 -48.813,-83.736Z" style="fill:#ffc709;stroke:#ba6d00;stroke-width:5.94px;stroke-linejoin:round;"/><path id="g92" serif:id="g" d="M2421.23,627.879c0,0 81.067,49.231 41.157,84.998c-46.919,16.207 -41.157,-84.998 -41.157,-84.998Z" style="fill:#ffc709;stroke:#ba6d00;stroke-width:5.78px;stroke-linejoin:round;"/><path id="g93" serif:id="g" d="M2473.68,660.668c0,0 72.063,56.734 27.996,84.327c-48.107,8.528 -27.996,-84.327 -27.996,-84.327Z" style="fill:#ffc709;stroke:#ba6d00;stroke-width:5.43px;stroke-linejoin:round;"/><path id="g94" serif:id="g" d="M2513.53,689.64c0,0 69.867,60.094 25.204,86.513c-48.085,6.94 -25.204,-86.513 -25.204,-86.513Z" style="fill:#ffc709;stroke:#ba6d00;stroke-width:5.51px;stroke-linejoin:round;"/><path id="g95" serif:id="g" d="M2551.47,717.149c0,0 70.351,59.17 25.905,85.904c-48.025,7.371 -25.905,-85.904 -25.905,-85.904Z" style="fill:#ffc709;stroke:#ba6d00;stroke-width:5.49px;stroke-linejoin:round;"/><path id="g96" serif:id="g" d="M2591.07,751.966c0,0 61.874,67.422 14.914,88.405c-48.101,1.338 -14.914,-88.405 -14.914,-88.405Z" style="fill:#ffc709;stroke:#ba6d00;stroke-width:5.48px;stroke-linejoin:round;"/><path id="g97" serif:id="g" d="M2159.55,645.458c0,0 54.018,74.508 83.625,32.065c10.604,-47.415 -83.625,-32.065 -83.625,-32.065Z" style="fill:#ffc709;stroke:#ba6d00;stroke-width:5.47px;stroke-linejoin:round;"/><path id="g98" serif:id="g" d="M2201.39,608.797c0,0 89.486,-0.384 73.731,51.604c-30.71,38.81 -73.731,-51.604 -73.731,-51.604Z" style="fill:#ffc709;stroke:#ba6d00;stroke-width:5.53px;stroke-linejoin:round;"/><path id="g99" serif:id="g" d="M2204.83,696.757c0,0 84.485,44.048 92.882,-8.919c-11.656,-48.799 -92.882,8.919 -92.882,8.919Z" style="fill:#ffc709;stroke:#ba6d00;stroke-width:5.71px;stroke-linejoin:round;"/><path id="g100" serif:id="g" d="M2262.38,615.247c0,0 93.015,23.773 63.594,68.47c-41.637,28.259 -63.594,-68.47 -63.594,-68.47Z" style="fill:#ffc709;stroke:#ba6d00;stroke-width:5.71px;stroke-linejoin:round;"/><path id="g101" serif:id="g" d="M2263.45,715.178c0,0 84.58,47.424 93.803,-7.97c-11.062,-51.322 -93.803,7.97 -93.803,7.97Z" style="fill:#ffc709;stroke:#ba6d00;stroke-width:5.76px;stroke-linejoin:round;"/><path id="g102" serif:id="g" d="M2316.61,742.497c0,0 79.359,45.773 89.365,-5.153c-9.37,-47.642 -89.365,5.153 -89.365,5.153Z" style="fill:#ffc709;stroke:#ba6d00;stroke-width:5.48px;stroke-linejoin:round;"/><path id="g103" serif:id="g" d="M2321.98,631.191c0,0 96.862,37.035 60.186,82.962c-47.858,26.362 -60.186,-82.962 -60.186,-82.962Z" style="fill:#ffc709;stroke:#ba6d00;stroke-width:6.27px;stroke-linejoin:round;"/><path id="g104" serif:id="g" d="M2387.44,665.817c0,0 85.007,49.392 42.855,84.796c-49.423,15.902 -42.855,-84.796 -42.855,-84.796Z" style="fill:#ffc709;stroke:#ba6d00;stroke-width:5.8px;stroke-linejoin:round;"/><path id="g105" serif:id="g" d="M2364.32,766.728c0,0 72.383,55.285 87.543,4.884c-4.052,-49.267 -87.543,-4.884 -87.543,-4.884Z" style="fill:#ffc709;stroke:#ba6d00;stroke-width:5.36px;stroke-linejoin:round;"/><path id="g106" serif:id="g" d="M2442.98,697.4c0,0 79.632,57.848 34.137,89.375c-50.776,11.223 -34.137,-89.375 -34.137,-89.375Z" style="fill:#ffc709;stroke:#ba6d00;stroke-width:5.85px;stroke-linejoin:round;"/><path id="g107" serif:id="g" d="M2490.2,728.928c0,0 71.706,60.019 26.458,87.007c-48.91,7.381 -26.458,-87.007 -26.458,-87.007Z" style="fill:#ffc709;stroke:#ba6d00;stroke-width:5.56px;stroke-linejoin:round;"/><path id="g108" serif:id="g" d="M2407.14,795.068c0,0 67.426,65.663 90.75,18.343c3.08,-49.173 -90.75,-18.343 -90.75,-18.343Z" style="fill:#ffc709;stroke:#ba6d00;stroke-width:5.66px;stroke-linejoin:round;"/></g><g><path id="g109" serif:id="g" d="M2638.55,1633.43c0,0 -64.249,73.27 -97.2,28.95c-10.926,-48.551 97.2,-28.95 97.2,-28.95Z" style="fill:#ffc709;stroke:#ba6d00;stroke-width:6.23px;stroke-linejoin:round;"/><path id="g110" serif:id="g" d="M2607.18,1674.51c0,0 -70.59,78.886 -100.502,27.57c-7.319,-54.953 100.502,-27.57 100.502,-27.57Z" style="fill:#ffc709;stroke:#ba6d00;stroke-width:6.38px;stroke-linejoin:round;"/><path id="g111" serif:id="g" d="M2560.86,1716.2c0,0 -62.08,64.437 -85.385,19.863c-4.2,-46.868 85.385,-19.863 85.385,-19.863Z" style="fill:#ffc709;stroke:#ba6d00;stroke-width:5.36px;stroke-linejoin:round;"/><path id="g112" serif:id="g" d="M2507.43,1555.79c0,0 -59.754,66.598 -13.588,86.586c47.061,0.771 13.588,-86.586 13.588,-86.586Z" style="fill:#ffc709;stroke:#ba6d00;stroke-width:5.36px;stroke-linejoin:round;"/><path id="g113" serif:id="g" d="M2556.66,1630.43c0,0 -45.411,81.921 -80.51,42.837c-16.521,-46.484 80.51,-42.837 80.51,-42.837Z" style="fill:#ffc709;stroke:#ba6d00;stroke-width:5.57px;stroke-linejoin:round;"/><path id="g114" serif:id="g" d="M2476.68,1614.81c0,0 -54.791,70.736 -82.755,28.925c-9.216,-46.145 82.755,-28.925 82.755,-28.925Z" style="fill:#ffc709;stroke:#ba6d00;stroke-width:5.36px;stroke-linejoin:round;"/><path id="g115" serif:id="g" d="M2476.49,1594.14c0,0 -66.97,63.223 -21.646,88.008c47.963,5.06 21.646,-88.008 21.646,-88.008Z" style="fill:#ffc709;stroke:#ba6d00;stroke-width:5.54px;stroke-linejoin:round;"/><path id="g116" serif:id="g" d="M2522.54,1683.93c0,0 -61.662,70.084 -88.409,25.036c-6.854,-48.418 88.409,-25.036 88.409,-25.036Z" style="fill:#ffc709;stroke:#ba6d00;stroke-width:5.62px;stroke-linejoin:round;"/><path id="g117" serif:id="g" d="M2400.87,1561.16c0,0 -65.143,57.062 -25.968,82.621c42.995,6.944 25.968,-82.621 25.968,-82.621Z" style="fill:#ffc709;stroke:#ba6d00;stroke-width:5.3px;stroke-linejoin:round;"/><path id="g118" serif:id="g" d="M2440.24,1644.34c0,0 -56.808,63.927 -80.797,22.284c-5.827,-44.576 80.797,-22.284 80.797,-22.284Z" style="fill:#ffc709;stroke:#ba6d00;stroke-width:5.13px;stroke-linejoin:round;"/><path id="g119" serif:id="g" d="M2361.46,1591.36c0,0 -60.656,53.616 -20.504,76.005c42.771,5.312 20.504,-76.005 20.504,-76.005Z" style="fill:#ffc709;stroke:#ba6d00;stroke-width:4.81px;stroke-linejoin:round;"/><path id="g120" serif:id="g" d="M2412.42,1676.25c0,0 -67.931,58.239 -86.888,11.649c0.279,-47.054 86.888,-11.649 86.888,-11.649Z" style="fill:#ffc709;stroke:#ba6d00;stroke-width:5.36px;stroke-linejoin:round;"/><path id="g121" serif:id="g" d="M2439.76,1632.86c0,0 -74.911,54.967 -32.189,85.026c47.71,10.739 32.189,-85.026 32.189,-85.026Z" style="fill:#ffc709;stroke:#ba6d00;stroke-width:5.56px;stroke-linejoin:round;"/><path id="g122" serif:id="g" d="M2396.72,1669.21c0,0 -71.408,53.923 -29.926,82.381c46.042,9.768 29.926,-82.381 29.926,-82.381Z" style="fill:#ffc709;stroke:#ba6d00;stroke-width:5.36px;stroke-linejoin:round;"/><path id="g123" serif:id="g" d="M2323.26,1629.38c0,0 -62.891,63.648 -17.739,85.833c46.969,3.033 17.739,-85.833 17.739,-85.833Z" style="fill:#ffc709;stroke:#ba6d00;stroke-width:5.36px;stroke-linejoin:round;"/></g><g><path id="g124" serif:id="g" d="M2720.99,966.101c0,0 31.631,87.517 -21.657,88.537c-46.404,-17.795 21.657,-88.537 21.657,-88.537Z" style="fill:#ffc709;stroke:#ba6d00;stroke-width:5.58px;stroke-linejoin:round;"/><path id="g125" serif:id="g" d="M2739.35,1018.11c0,0 24.953,90.274 -28.773,87.394c-45.315,-21.285 28.773,-87.394 28.773,-87.394Z" style="fill:#ffc709;stroke:#ba6d00;stroke-width:5.63px;stroke-linejoin:round;"/><path id="g126" serif:id="g" d="M2754.24,1070.73c0,0 20.127,90.197 -36.448,84.237c-46.414,-23.562 36.448,-84.237 36.448,-84.237Z" style="fill:#ffc709;stroke:#ba6d00;stroke-width:5.64px;stroke-linejoin:round;"/><path id="g127" serif:id="g" d="M2763.41,1123.42c0,0 10.565,98.233 -42.047,86.407c-41.435,-29.636 42.047,-86.407 42.047,-86.407Z" style="fill:#ffc709;stroke:#ba6d00;stroke-width:5.87px;stroke-linejoin:round;"/><path id="g128" serif:id="g" d="M2768.94,1177.71c0,0 7.014,93.75 -45.419,80.703c-40.547,-29.596 45.419,-80.703 45.419,-80.703Z" style="fill:#ffc709;stroke:#ba6d00;stroke-width:5.67px;stroke-linejoin:round;"/><path id="g129" serif:id="g" d="M2626.8,917.687c0,0 63.419,76.776 8.303,94.709c-54.506,-2.918 -8.303,-94.709 -8.303,-94.709Z" style="fill:#ffc709;stroke:#ba6d00;stroke-width:5.81px;stroke-linejoin:round;"/><path id="g130" serif:id="g" d="M2567.63,984.871c0,0 29.38,89.092 72.058,57.681c25.564,-42.289 -72.058,-57.681 -72.058,-57.681Z" style="fill:#ffc709;stroke:#ba6d00;stroke-width:5.65px;stroke-linejoin:round;"/><path id="g131" serif:id="g" d="M2667.04,975.89c0,0 43.895,83.933 -9.866,91.794c-49.356,-11.939 9.866,-91.794 9.866,-91.794Z" style="fill:#ffc709;stroke:#ba6d00;stroke-width:5.65px;stroke-linejoin:round;"/><path id="g132" serif:id="g" d="M2567.54,1001.09c0,0 53.174,69.236 4.731,80.815c-47.363,-6.052 -4.731,-80.815 -4.731,-80.815Z" style="fill:#ffc709;stroke:#ba6d00;stroke-width:4.93px;stroke-linejoin:round;"/><path id="g133" serif:id="g" d="M2512.58,1052.41c0,0 22.483,77.47 57.191,50.717c21.09,-36.355 -57.191,-50.717 -57.191,-50.717Z" style="fill:#ffc709;stroke:#ba6d00;stroke-width:4.66px;stroke-linejoin:round;"/><path id="g134" serif:id="g" d="M2594.39,1049.47c0,0 34.555,76.418 -10.155,79.445c-40.634,-13.946 10.155,-79.445 10.155,-79.445Z" style="fill:#ffc709;stroke:#ba6d00;stroke-width:4.88px;stroke-linejoin:round;"/><path id="g135" serif:id="g" d="M2585.41,1035.35c0,0 24.853,89.786 67.824,60.444c26.743,-40.895 -67.824,-60.444 -67.824,-60.444Z" style="fill:#ffc709;stroke:#ba6d00;stroke-width:5.55px;stroke-linejoin:round;"/><path id="g136" serif:id="g" d="M2693.93,1035.03c0,0 28.598,95.537 -28.376,93.5c-48.507,-21.773 28.376,-93.5 28.376,-93.5Z" style="fill:#ffc709;stroke:#ba6d00;stroke-width:5.98px;stroke-linejoin:round;"/><path id="g137" serif:id="g" d="M2527.41,1094.6c0,0 14.692,75.025 52.879,53.943c25.333,-31.611 -52.879,-53.943 -52.879,-53.943Z" style="fill:#ffc709;stroke:#ba6d00;stroke-width:4.63px;stroke-linejoin:round;"/><path id="g138" serif:id="g" d="M2607.72,1100.97c0,0 29.115,72.12 -16.585,72.286c-40.217,-15.166 16.585,-72.286 16.585,-72.286Z" style="fill:#ffc709;stroke:#ba6d00;stroke-width:4.54px;stroke-linejoin:round;"/><path id="g139" serif:id="g" d="M2603.31,1082.43c0,0 9.358,93.813 58.031,72.111c34.275,-36.057 -58.031,-72.111 -58.031,-72.111Z" style="fill:#ffc709;stroke:#ba6d00;stroke-width:5.66px;stroke-linejoin:round;"/><path id="g140" serif:id="g" d="M2711.84,1092.57c0,0 16.55,100.928 -36.523,92.429c-43.048,-27.729 36.523,-92.429 36.523,-92.429Z" style="fill:#ffc709;stroke:#ba6d00;stroke-width:6.06px;stroke-linejoin:round;"/><path id="g141" serif:id="g" d="M2535.94,1132.72c0,0 10.495,82.195 49.91,61.677c27.137,-32.712 -49.91,-61.677 -49.91,-61.677Z" style="fill:#ffc709;stroke:#ba6d00;stroke-width:4.83px;stroke-linejoin:round;"/><path id="g142" serif:id="g" d="M2617.42,1151.62c0,0 21.607,75.611 -23.554,71.933c-38.225,-18.77 23.554,-71.933 23.554,-71.933Z" style="fill:#ffc709;stroke:#ba6d00;stroke-width:4.63px;stroke-linejoin:round;"/><path id="g143" serif:id="g" d="M2614.44,1136.36c0,0 2.818,93.723 52.158,75.533c36.159,-33.42 -52.158,-75.533 -52.158,-75.533Z" style="fill:#ffc709;stroke:#ba6d00;stroke-width:5.61px;stroke-linejoin:round;"/><path id="g144" serif:id="g" d="M2721.28,1155c0,0 1.642,99.557 -49.574,82.736c-38.504,-33.638 49.574,-82.736 49.574,-82.736Z" style="fill:#ffc709;stroke:#ba6d00;stroke-width:5.88px;stroke-linejoin:round;"/><path id="g145" serif:id="g" d="M2774.3,1227.14c0,0 -2.372,95.328 -52.311,77.066c-36.7,-33.815 52.311,-77.066 52.311,-77.066Z" style="fill:#ffc709;stroke:#ba6d00;stroke-width:5.69px;stroke-linejoin:round;"/><path id="g146" serif:id="g" d="M2544.8,1177.29c0,0 -2.389,79.214 41.168,66.661c32.955,-26.145 -41.168,-66.661 -41.168,-66.661Z" style="fill:#ffc709;stroke:#ba6d00;stroke-width:4.8px;stroke-linejoin:round;"/><path id="g147" serif:id="g" d="M2627.22,1206.03c0,0 9.748,82.72 -38.217,70.867c-37.799,-26.367 38.217,-70.867 38.217,-70.867Z" style="fill:#ffc709;stroke:#ba6d00;stroke-width:4.93px;stroke-linejoin:round;"/><path id="g148" serif:id="g" d="M2617.89,1185.54c0,0 -4.477,94.982 45.716,80.657c38.341,-30.808 -45.716,-80.657 -45.716,-80.657Z" style="fill:#ffc709;stroke:#ba6d00;stroke-width:5.66px;stroke-linejoin:round;"/><path id="g149" serif:id="g" d="M2727.77,1212.31c0,0 -7.402,95.043 -55.149,74.034c-34.001,-35.802 55.149,-74.034 55.149,-74.034Z" style="fill:#ffc709;stroke:#ba6d00;stroke-width:5.63px;stroke-linejoin:round;"/><path id="g150" serif:id="g" d="M2546.9,1222.03c0,0 -10.986,79.48 33.58,70.813c35.529,-23.308 -33.58,-70.813 -33.58,-70.813Z" style="fill:#ffc709;stroke:#ba6d00;stroke-width:4.79px;stroke-linejoin:round;"/><path id="g151" serif:id="g" d="M2625.12,1256.09c0,0 3.699,82.756 -37.764,67.962c-31.674,-28.566 37.764,-67.962 37.764,-67.962Z" style="fill:#ffc709;stroke:#ba6d00;stroke-width:4.73px;stroke-linejoin:round;"/><path id="g152" serif:id="g" d="M2544.37,1266.17c0,0 -12.705,76.627 32.43,67.088c36.318,-23.352 -32.43,-67.088 -32.43,-67.088Z" style="fill:#ffc709;stroke:#ba6d00;stroke-width:4.56px;stroke-linejoin:round;"/><path id="g153" serif:id="g" d="M2773.86,1283.29c0,0 -13.18,88.49 -58.027,65.698c-30.615,-35.741 58.027,-65.698 58.027,-65.698Z" style="fill:#ffc709;stroke:#ba6d00;stroke-width:5.36px;stroke-linejoin:round;"/></g><g><path d="M2603.4,1467.49c0,0 50.084,0.623 83.488,-9.965c43.856,-11.988 61.322,-52.503 61.322,-52.503c0,0 6.427,9.276 6.028,22.475c-0.4,11.998 -8.975,39.693 -30.503,69.012c-22.329,36.118 -37.527,78.703 -55.532,106.671c-14.403,25.169 -44.802,47.941 -44.802,47.941c0,0 -96.737,-11.56 -106.097,-13.56c-12.459,-1.9 -97.937,-21.597 -117.118,-22.662c-19.181,-1.065 -62.737,1.731 -62.737,1.731c0,0 15.332,-28.234 22.732,-33.691c14.802,-12.258 32.691,-17.256 51.204,-35.157c10.113,-11.104 27.163,-30.762 36.754,-41.416c11.99,-11.454 21.043,-22.734 34.1,-30.078c10.656,-6.944 121.161,-8.798 121.161,-8.798Z" style="stroke:#ba6d00;stroke-width:2.66px;"/><path d="M2384.75,1568.77c0,0 35.56,0.905 52.678,3.097c18.92,2.995 59.584,7.909 92.23,11.251c29.329,3.238 54.174,5.129 87.274,5.478l60.118,-2.749c-1.918,3.566 -7.273,13.172 -12.591,20.814c-6.394,9.793 -11.422,16.311 -23.124,27.206c-9.602,9.09 -15.533,13.814 -18.282,15.92c-7.201,-0.801 -52.683,-6.252 -71.044,-8.791c-30.212,-2.94 -45.542,-6.984 -80.328,-14.351c-18.183,-3.706 -60.331,-12.573 -71.297,-13.175c-12.365,-1.004 -56.34,1.316 -60.94,1.717c3.756,-6.17 7.477,-12.361 11.163,-18.573c6.816,-11.52 12.094,-14.485 21.685,-20.898c3.796,-2.475 12.147,-6.819 12.458,-6.946Z" style="fill:#ffc709;"/><path d="M2712.81,1512.76c-2.8,5.199 -10.188,20.095 -16.782,33.418c-8.442,18.252 -13.095,28.2 -19.261,40.178c-13.402,1 -26.477,1.383 -59.846,2.448c-33.101,-0.349 -57.927,-2.246 -87.257,-5.473c-32.645,-3.33 -73.329,-8.215 -92.249,-11.199c-17.118,-2.185 -53.215,-3.051 -53.215,-3.051c0,0 16.035,-9.688 23.495,-16.08c9.259,-8.591 13.512,-14.724 21.061,-22.673c9.801,-0.799 23.444,-0.865 38.363,-1.93c26.12,-1.466 66.269,1.265 88.647,1.265c22.378,0 60.209,-0.765 92.113,-4.475c43.303,-3.111 53.73,-10.227 64.931,-12.427l0,-0.001Z" style="fill:#d00;"/><path d="M2748.88,1413.99c-6.633,10.264 -13.31,20.722 -23.986,29.43c-18.113,12.929 -22.782,15.498 -57.782,23.706c-31.534,4.992 -38.634,3.61 -80.676,4.905c-40.974,1.261 -52.809,2.216 -79.314,4.359c-12.813,1.037 -17.103,2.112 -22.622,2.998" style="fill:none;stroke:#ffc709;stroke-width:4.26px;stroke-linecap:round;"/></g></g><path d="M1912,1655.1c-5.842,0.048 -12.068,0.858 -18.089,1.917c-40.139,6.956 -70.383,30.477 -170.393,54.121c-34.448,9.435 -69.666,12.519 -110.345,10.494c-3.007,-0.84 -5.414,-4.214 -5.461,-7.751l-9.804,-5.593c-4.29,6.626 -1.674,13.405 -0.134,17.525c1.268,3.394 3.292,7.235 6.287,9.615c72.303,51.47 74.166,62.538 115.754,101.769c22.93,22.599 29.845,29.745 106.189,17.632c15.061,24.418 18.316,37.16 61.754,24.53l7.299,18.298c6.756,12.611 16.012,12.804 39.508,7.803c60.852,-13.087 78.454,-27.92 147.935,-29.457c69.506,1.535 87.103,16.369 147.963,29.457c23.496,5.001 32.752,4.808 39.507,-7.803l7.3,-18.298c43.438,12.629 46.693,-0.111 61.753,-24.53c76.345,12.112 83.259,4.967 106.19,-17.632c41.588,-39.231 43.452,-50.299 115.753,-101.769c2.996,-2.38 4.992,-6.22 6.261,-9.615c1.54,-4.12 4.183,-10.9 -0.107,-17.525l-9.804,5.593c-0.047,3.537 -2.455,6.911 -5.461,7.751c-40.679,2.025 -75.898,-1.06 -110.346,-10.494c-100.009,-23.644 -130.253,-47.165 -170.393,-54.121c-16.055,-2.824 -33.673,-3.889 -41.159,6.525c-8.652,10.543 -15.832,30.555 -28.213,49.195c-23.21,-7.372 -41.644,-14.165 -60.634,-18.165c-25.365,-5.342 -43.656,-5.015 -58.61,-5.015c-14.706,0 -33.228,-0.325 -58.583,5.015c-18.989,3.999 -37.423,10.793 -60.634,18.164c-12.381,-18.639 -19.561,-38.651 -28.211,-49.194c-4.681,-6.508 -13.334,-8.522 -23.072,-8.442Z" style="stroke:#ba6d00;stroke-width:2.66px;"/><path d="M1904.59,1704.82c6.258,11.143 8.803,19.956 11.223,29.66" style="fill:none;fill-rule:nonzero;stroke:#ffc709;stroke-width:4.26px;"/><path d="M1662.15,1778.73c25.566,-2.773 33.013,-3.475 54.154,-6.988c19.832,-3.616 36.201,-7.247 54.027,-12.067c5.399,8.033 10.421,15.744 16.014,23.712c5.012,7.99 7.246,10.925 15.022,27.397c-16.047,1.457 -29.326,3.889 -46.209,6.052c-14.484,1.885 -31.089,4.155 -48.08,6.233c-6.513,-6.383 -11.483,-11.61 -18.576,-18.956c-8.655,-8.719 -15.254,-15.509 -26.352,-25.383Zm179.35,-5.46c-25.729,5.425 -28.913,5.944 -48.235,12.199c9.814,17.083 15.315,33.224 22.148,47.417c19.817,-4.489 29.892,-6.574 49.077,-10.53l-9.724,-20.881l-13.266,-28.206l0,0.001Z" style="fill:#d00;"/><path d="M1707.01,1823.02c15.723,-1.868 31.163,-4.02 47.168,-6.114c18.711,-2.51 31.308,-4.617 48.49,-6.333c3.55,8.257 5.376,12.693 9.585,21.974c3.521,7.746 8.171,15.097 11.675,21.353c-11.376,1.583 -20.093,2.939 -32.603,4.239c-13.512,1.139 -18.395,1.573 -29.327,0.87c-10.755,-0.969 -18.622,-3.07 -28.189,-10.547c-6.187,-4.986 -16.031,-15.012 -26.799,-25.442Zm108.423,9.868c17.097,-3.989 32.44,-7.217 50.486,-10.825c4.297,10.355 5.978,15.081 9.642,25.753c3.819,10.742 7.004,20.472 10.507,30.707c-8.571,2.304 -11.763,3.028 -21.345,4.257c-7.747,0.57 -14.987,-0.251 -20.581,-4.741c-4.486,-3.234 -10.87,-13.046 -16.875,-23.555c-4.536,-8.084 -7.677,-13.006 -11.834,-21.597l0,0.001Z" style="fill:#ffc709;"/><path d="M2072.61,1754.57c-15.04,0.806 -30.062,2.709 -34.978,3.888c-28.98,7.092 -46.271,13.132 -66.096,19.791c-35.084,11.722 -46.143,17.115 -65.882,23.144c-15.612,4.784 -26.702,7.369 -40.92,10.628c6.836,16.221 11.942,31.003 18.089,48.66c17.851,-3.066 32.158,-6.253 49.951,-11.613c19.949,-6.571 37.484,-12.157 58.983,-18.67c18.607,-5.632 31.809,-8.8 56.557,-12.998c9.883,-0.93 17.073,-1.503 24.563,-1.758l0,0.027c3.568,-0.121 6.621,-0.168 9.617,-0.186c3.005,0.017 6.067,0.065 9.645,0.186l0,-0.026c7.483,0.254 14.688,0.828 24.562,1.757c24.748,4.198 37.951,7.366 56.558,12.998c21.499,6.513 39.034,12.1 58.982,18.67c17.794,5.361 32.101,8.547 49.951,11.613c6.147,-17.657 11.254,-32.439 18.091,-48.661c-14.219,-3.258 -25.31,-5.843 -40.92,-10.627c-19.74,-6.029 -30.799,-11.422 -65.883,-23.145c-19.825,-6.658 -37.117,-12.698 -66.096,-19.79c-4.916,-1.179 -19.938,-3.082 -34.979,-3.888c-9.207,-0.379 -10.634,-0.379 -19.795,0Z" style="fill:#d00;"/><path d="M2074.1,1815.46l0,0.054c-16.461,0.277 -28.036,1.614 -52.614,6.899c-40.699,9.467 -76.255,23.398 -99.663,29.803c-13.771,3.483 -25.669,5.945 -38.975,8.576c4.366,13.756 9.132,26.321 14.119,37.714c5.248,8.574 12.731,9.537 20.886,8.576c13.031,-2 23.739,-4.302 36.925,-7.696c26.183,-7.048 47.548,-14.335 72.569,-19.444c20.005,-3.636 35.868,-4.69 55.145,-5.247c19.28,0.557 35.14,1.611 55.147,5.247c25.021,5.109 46.412,12.396 72.595,19.443c13.186,3.395 23.894,5.697 36.924,7.697c8.156,0.961 15.639,-0.003 20.886,-8.576c4.987,-11.393 9.753,-23.958 14.12,-37.714c-13.305,-2.631 -25.231,-5.093 -39.002,-8.576c-23.409,-6.405 -58.937,-20.336 -99.636,-29.803c-24.567,-5.282 -36.165,-6.621 -52.615,-6.899l0,-0.054c-3.23,-0.018 -5.613,0.026 -8.419,0.028c-2.8,-0.002 -5.166,-0.046 -8.392,-0.028Z" style="fill:#ffc709;"/><path d="M2260.2,1705.48c-4.932,10.259 -8.804,19.735 -11.445,28.998" style="fill:none;fill-rule:nonzero;stroke:#ffc709;stroke-width:4.26px;"/><path d="M2502.86,1778.73c-25.566,-2.773 -33.014,-3.475 -54.154,-6.988c-19.833,-3.616 -36.202,-7.247 -54.027,-12.067c-5.4,8.033 -10.422,15.744 -16.014,23.712c-5.013,7.99 -7.246,10.925 -15.023,27.397c16.047,1.457 29.327,3.889 46.21,6.052c14.484,1.885 31.088,4.155 48.079,6.233c6.513,-6.383 11.484,-11.61 18.576,-18.956c8.655,-8.719 15.254,-15.509 26.353,-25.383Zm-179.35,-5.46c25.729,5.425 28.913,5.944 48.234,12.199c-9.814,17.083 -15.314,33.224 -22.148,47.417c-19.816,-4.489 -29.891,-6.574 -49.077,-10.53l9.724,-20.881l13.267,-28.206l0,0.001Z" style="fill:#d00;"/><path d="M2458.01,1823.02c-15.723,-1.868 -31.163,-4.02 -47.168,-6.114c-18.711,-2.51 -31.309,-4.617 -48.491,-6.333c-3.549,8.257 -5.376,12.693 -9.585,21.974c-3.521,7.746 -8.171,15.097 -11.675,21.353c11.377,1.583 20.093,2.939 32.603,4.239c13.512,1.139 18.396,1.573 29.328,0.87c10.755,-0.969 18.622,-3.07 28.188,-10.547c6.187,-4.986 16.032,-15.012 26.8,-25.442Zm-108.423,9.868c-17.097,-3.989 -32.44,-7.217 -50.487,-10.825c-4.296,10.355 -5.977,15.081 -9.642,25.753c-3.818,10.742 -7.004,20.472 -10.506,30.707c8.57,2.304 11.762,3.028 21.345,4.257c7.746,0.57 14.986,-0.251 20.581,-4.741c4.486,-3.234 10.869,-13.046 16.874,-23.555c4.537,-8.084 7.678,-13.006 11.835,-21.597l0,0.001Z" style="fill:#ffc709;"/><path d="M1830.37,1749.56c4.089,11.377 12.998,25.886 18.801,38.12c2.469,4.723 10.464,21.443 16.267,36.737m-108.675,-86.882c9.537,14.902 18.461,28.578 28.664,43.194c7.354,10.709 11.952,21.137 16.668,31.902m605.923,-73.548c-9.536,14.901 -18.238,27.03 -28.441,41.646c-7.354,10.709 -11.952,21.137 -16.668,31.902m-28.335,-64.158c-4.09,11.376 -12.998,26.99 -18.801,39.224c-2.47,4.723 -10.465,21.443 -16.268,36.737" style="fill:none;fill-rule:nonzero;stroke:#ffc709;stroke-width:2.66px;"/><path d="M1602.53,1710.88c-1.569,2.386 -0.531,6.034 0.682,8.233c1.029,1.87 4.438,6.329 9.05,6.972c34.856,1.374 57.283,0.925 93.3,-5.985c38.051,-8.985 72.308,-17.474 110.788,-31.859c22.643,-8.165 49.621,-19.728 65.818,-24.145c20.367,-5.481 40.276,-8.92 47.367,-0.274c5.088,7.963 -11.824,17.312 -28.897,22.97c-19.837,6.017 -38.502,9.106 -58.456,11.727c-21.063,3.855 -43.415,8.061 -62.252,13.79c-11.793,3.816 -25.275,13.409 -23.826,21.794c2.442,10.967 18.056,7.836 31.982,3.22l92.36,-35.254c10.531,-3.846 21.829,-2.552 24.211,3.105c2.086,5.784 0.422,13.794 -13.781,16.649l-44.217,7.463c-15.692,2.85 -17.444,14.25 -16.252,18.364c1.316,4.275 7.694,10.259 26.589,5.748c43.372,-10.619 73.619,-25.69 101.64,-34.317c68.287,-23.184 80.989,-24.931 123.791,-25.1c41.291,0.085 54.378,1.51 123.94,25.1c28.022,8.627 58.269,23.699 101.641,34.317c18.895,4.511 25.051,-2.136 26.368,-6.412c1.191,-4.112 -1.003,-13.082 -16.032,-17.7l-44.216,-7.463c-14.203,-2.856 -15.867,-10.865 -13.782,-16.649c2.383,-5.657 13.681,-6.951 24.212,-3.105l92.36,35.254c13.925,4.616 30.204,8.189 32.645,-2.777c1.449,-8.385 -9.38,-17.758 -24.49,-22.237c-18.836,-5.729 -41.188,-9.935 -62.252,-13.79c-19.954,-2.621 -38.618,-5.71 -58.456,-11.727c-17.073,-5.658 -33.985,-14.786 -29.118,-22.97c8.197,-8.867 28.549,-5.429 47.589,0.274c16.197,4.417 43.175,15.98 65.818,24.145c38.48,14.385 72.736,22.874 110.788,31.859c36.017,6.91 58.443,7.359 93.3,5.984c4.612,-0.642 8.021,-5.101 9.05,-6.972c1.212,-2.199 2.251,-5.846 0.682,-8.232" style="fill:none;fill-rule:nonzero;stroke:#ffc709;stroke-width:4.26px;"/></g></svg>