<?xml version="1.0" encoding="UTF-8" standalone="no"?><!DOCTYPE svg PUBLIC "-//W3C//DTD SVG 1.1//EN" "http://www.w3.org/Graphics/SVG/1.1/DTD/svg11.dtd"><svg width="100%" height="100%" viewBox="0 0 5146 2709" version="1.1" xmlns="http://www.w3.org/2000/svg" xmlns:xlink="http://www.w3.org/1999/xlink" xml:space="preserve" xmlns:serif="http://www.serif.com/" style="fill-rule:evenodd;clip-rule:evenodd;"><rect x="0" y="0" width="5145.83" height="2708.33" style="fill:#b22234;"/><path d="M0,312.5l5145.83,0m0,416.667l-5145.83,0m0,416.666l5145.83,0m0,416.667l-5145.83,0m0,416.667l5145.83,0m0,416.666l-5145.83,0" style="fill-rule:nonzero;stroke:#fff;stroke-width:208.33px;"/><rect x="0" y="0" width="2058.33" height="1458.33" style="fill:#3c3b6e;"/><g><g id="s18"><g id="s9"><g id="s5"><g id="s4"><path id="s" d="M171.528,62.5l48.982,150.751l-128.237,-93.169l158.509,0l-128.236,93.169l48.982,-150.751Z" style="fill:#fff;fill-rule:nonzero;"/><path id="s1" serif:id="s" d="M171.528,354.167l48.982,150.751l-128.237,-93.169l158.509,0l-128.236,93.169l48.982,-150.751Z" style="fill:#fff;fill-rule:nonzero;"/><path id="s2" serif:id="s" d="M171.528,645.833l48.982,150.752l-128.237,-93.17l158.509,0l-128.236,93.17l48.982,-150.752Z" style="fill:#fff;fill-rule:nonzero;"/><path id="s3" serif:id="s" d="M171.528,937.5l48.982,150.751l-128.237,-93.169l158.509,0l-128.236,93.169l48.982,-150.751Z" style="fill:#fff;fill-rule:nonzero;"/></g><path id="s6" serif:id="s" d="M171.528,1229.17l48.982,150.751l-128.237,-93.169l158.509,0l-128.236,93.169l48.982,-150.751Z" style="fill:#fff;fill-rule:nonzero;"/></g><g id="s41" serif:id="s4"><path id="s7" serif:id="s" d="M343.056,208.333l48.982,150.752l-128.237,-93.17l158.509,0l-128.237,93.17l48.983,-150.752Z" style="fill:#fff;fill-rule:nonzero;"/><path id="s8" serif:id="s" d="M343.056,500l48.982,150.751l-128.237,-93.169l158.509,0l-128.237,93.169l48.983,-150.751Z" style="fill:#fff;fill-rule:nonzero;"/><path id="s10" serif:id="s" d="M343.056,791.667l48.982,150.751l-128.237,-93.169l158.509,0l-128.237,93.169l48.983,-150.751Z" style="fill:#fff;fill-rule:nonzero;"/><path id="s11" serif:id="s" d="M343.056,1083.33l48.982,150.752l-128.237,-93.17l158.509,0l-128.237,93.17l48.983,-150.752Z" style="fill:#fff;fill-rule:nonzero;"/></g></g><g id="s91" serif:id="s9"><g id="s51" serif:id="s5"><g id="s42" serif:id="s4"><path id="s12" serif:id="s" d="M514.583,62.5l48.982,150.751l-128.236,-93.169l158.509,0l-128.237,93.169l48.982,-150.751Z" style="fill:#fff;fill-rule:nonzero;"/><path id="s13" serif:id="s" d="M514.583,354.167l48.982,150.751l-128.236,-93.169l158.509,0l-128.237,93.169l48.982,-150.751Z" style="fill:#fff;fill-rule:nonzero;"/><path id="s14" serif:id="s" d="M514.583,645.833l48.982,150.752l-128.236,-93.17l158.509,0l-128.237,93.17l48.982,-150.752Z" style="fill:#fff;fill-rule:nonzero;"/><path id="s15" serif:id="s" d="M514.583,937.5l48.982,150.751l-128.236,-93.169l158.509,0l-128.237,93.169l48.982,-150.751Z" style="fill:#fff;fill-rule:nonzero;"/></g><path id="s16" serif:id="s" d="M514.583,1229.17l48.982,150.751l-128.236,-93.169l158.509,0l-128.237,93.169l48.982,-150.751Z" style="fill:#fff;fill-rule:nonzero;"/></g><g id="s43" serif:id="s4"><path id="s17" serif:id="s" d="M686.111,208.333l48.982,150.752l-128.237,-93.17l158.51,0l-128.237,93.17l48.982,-150.752Z" style="fill:#fff;fill-rule:nonzero;"/><path id="s19" serif:id="s" d="M686.111,500l48.982,150.751l-128.237,-93.169l158.51,0l-128.237,93.169l48.982,-150.751Z" style="fill:#fff;fill-rule:nonzero;"/><path id="s20" serif:id="s" d="M686.111,791.667l48.982,150.751l-128.237,-93.169l158.51,0l-128.237,93.169l48.982,-150.751Z" style="fill:#fff;fill-rule:nonzero;"/><path id="s21" serif:id="s" d="M686.111,1083.33l48.982,150.752l-128.237,-93.17l158.51,0l-128.237,93.17l48.982,-150.752Z" style="fill:#fff;fill-rule:nonzero;"/></g></g></g><g id="s181" serif:id="s18"><g id="s92" serif:id="s9"><g id="s52" serif:id="s5"><g id="s44" serif:id="s4"><path id="s22" serif:id="s" d="M857.639,62.5l48.982,150.751l-128.237,-93.169l158.51,0l-128.237,93.169l48.982,-150.751Z" style="fill:#fff;fill-rule:nonzero;"/><path id="s23" serif:id="s" d="M857.639,354.167l48.982,150.751l-128.237,-93.169l158.51,0l-128.237,93.169l48.982,-150.751Z" style="fill:#fff;fill-rule:nonzero;"/><path id="s24" serif:id="s" d="M857.639,645.833l48.982,150.752l-128.237,-93.17l158.51,0l-128.237,93.17l48.982,-150.752Z" style="fill:#fff;fill-rule:nonzero;"/><path id="s25" serif:id="s" d="M857.639,937.5l48.982,150.751l-128.237,-93.169l158.51,0l-128.237,93.169l48.982,-150.751Z" style="fill:#fff;fill-rule:nonzero;"/></g><path id="s26" serif:id="s" d="M857.639,1229.17l48.982,150.751l-128.237,-93.169l158.51,0l-128.237,93.169l48.982,-150.751Z" style="fill:#fff;fill-rule:nonzero;"/></g><g id="s45" serif:id="s4"><path id="s27" serif:id="s" d="M1029.17,208.333l48.982,150.752l-128.237,-93.17l158.509,0l-128.236,93.17l48.982,-150.752Z" style="fill:#fff;fill-rule:nonzero;"/><path id="s28" serif:id="s" d="M1029.17,500l48.982,150.751l-128.237,-93.169l158.509,0l-128.236,93.169l48.982,-150.751Z" style="fill:#fff;fill-rule:nonzero;"/><path id="s29" serif:id="s" d="M1029.17,791.667l48.982,150.751l-128.237,-93.169l158.509,0l-128.236,93.169l48.982,-150.751Z" style="fill:#fff;fill-rule:nonzero;"/><path id="s30" serif:id="s" d="M1029.17,1083.33l48.982,150.752l-128.237,-93.17l158.509,0l-128.236,93.17l48.982,-150.752Z" style="fill:#fff;fill-rule:nonzero;"/></g></g><g id="s93" serif:id="s9"><g id="s53" serif:id="s5"><g id="s46" serif:id="s4"><path id="s31" serif:id="s" d="M1200.69,62.5l48.983,150.751l-128.237,-93.169l158.509,0l-128.237,93.169l48.982,-150.751Z" style="fill:#fff;fill-rule:nonzero;"/><path id="s32" serif:id="s" d="M1200.69,354.167l48.983,150.751l-128.237,-93.169l158.509,0l-128.237,93.169l48.982,-150.751Z" style="fill:#fff;fill-rule:nonzero;"/><path id="s33" serif:id="s" d="M1200.69,645.833l48.983,150.752l-128.237,-93.17l158.509,0l-128.237,93.17l48.982,-150.752Z" style="fill:#fff;fill-rule:nonzero;"/><path id="s34" serif:id="s" d="M1200.69,937.5l48.983,150.751l-128.237,-93.169l158.509,0l-128.237,93.169l48.982,-150.751Z" style="fill:#fff;fill-rule:nonzero;"/></g><path id="s35" serif:id="s" d="M1200.69,1229.17l48.983,150.751l-128.237,-93.169l158.509,0l-128.237,93.169l48.982,-150.751Z" style="fill:#fff;fill-rule:nonzero;"/></g><g id="s47" serif:id="s4"><path id="s36" serif:id="s" d="M1372.22,208.333l48.982,150.752l-128.236,-93.17l158.509,0l-128.237,93.17l48.982,-150.752Z" style="fill:#fff;fill-rule:nonzero;"/><path id="s37" serif:id="s" d="M1372.22,500l48.982,150.751l-128.236,-93.169l158.509,0l-128.237,93.169l48.982,-150.751Z" style="fill:#fff;fill-rule:nonzero;"/><path id="s38" serif:id="s" d="M1372.22,791.667l48.982,150.751l-128.236,-93.169l158.509,0l-128.237,93.169l48.982,-150.751Z" style="fill:#fff;fill-rule:nonzero;"/><path id="s39" serif:id="s" d="M1372.22,1083.33l48.982,150.752l-128.236,-93.17l158.509,0l-128.237,93.17l48.982,-150.752Z" style="fill:#fff;fill-rule:nonzero;"/></g></g></g><g id="s94" serif:id="s9"><g id="s54" serif:id="s5"><g id="s48" serif:id="s4"><path id="s40" serif:id="s" d="M1543.75,62.5l48.982,150.751l-128.237,-93.169l158.51,0l-128.237,93.169l48.982,-150.751Z" style="fill:#fff;fill-rule:nonzero;"/><path id="s49" serif:id="s" d="M1543.75,354.167l48.982,150.751l-128.237,-93.169l158.51,0l-128.237,93.169l48.982,-150.751Z" style="fill:#fff;fill-rule:nonzero;"/><path id="s50" serif:id="s" d="M1543.75,645.833l48.982,150.752l-128.237,-93.17l158.51,0l-128.237,93.17l48.982,-150.752Z" style="fill:#fff;fill-rule:nonzero;"/><path id="s55" serif:id="s" d="M1543.75,937.5l48.982,150.751l-128.237,-93.169l158.51,0l-128.237,93.169l48.982,-150.751Z" style="fill:#fff;fill-rule:nonzero;"/></g><path id="s56" serif:id="s" d="M1543.75,1229.17l48.982,150.751l-128.237,-93.169l158.51,0l-128.237,93.169l48.982,-150.751Z" style="fill:#fff;fill-rule:nonzero;"/></g><g id="s410" serif:id="s4"><path id="s57" serif:id="s" d="M1715.28,208.333l48.982,150.752l-128.237,-93.17l158.509,0l-128.236,93.17l48.982,-150.752Z" style="fill:#fff;fill-rule:nonzero;"/><path id="s58" serif:id="s" d="M1715.28,500l48.982,150.751l-128.237,-93.169l158.509,0l-128.236,93.169l48.982,-150.751Z" style="fill:#fff;fill-rule:nonzero;"/><path id="s59" serif:id="s" d="M1715.28,791.667l48.982,150.751l-128.237,-93.169l158.509,0l-128.236,93.169l48.982,-150.751Z" style="fill:#fff;fill-rule:nonzero;"/><path id="s60" serif:id="s" d="M1715.28,1083.33l48.982,150.752l-128.237,-93.17l158.509,0l-128.236,93.17l48.982,-150.752Z" style="fill:#fff;fill-rule:nonzero;"/></g></g><g id="s510" serif:id="s5"><g id="s411" serif:id="s4"><path id="s61" serif:id="s" d="M1886.81,62.5l48.982,150.751l-128.237,-93.169l158.509,0l-128.237,93.169l48.983,-150.751Z" style="fill:#fff;fill-rule:nonzero;"/><path id="s62" serif:id="s" d="M1886.81,354.167l48.982,150.751l-128.237,-93.169l158.509,0l-128.237,93.169l48.983,-150.751Z" style="fill:#fff;fill-rule:nonzero;"/><path id="s63" serif:id="s" d="M1886.81,645.833l48.982,150.752l-128.237,-93.17l158.509,0l-128.237,93.17l48.983,-150.752Z" style="fill:#fff;fill-rule:nonzero;"/><path id="s64" serif:id="s" d="M1886.81,937.5l48.982,150.751l-128.237,-93.169l158.509,0l-128.237,93.169l48.983,-150.751Z" style="fill:#fff;fill-rule:nonzero;"/></g><path id="s65" serif:id="s" d="M1886.81,1229.17l48.982,150.751l-128.237,-93.169l158.509,0l-128.237,93.169l48.983,-150.751Z" style="fill:#fff;fill-rule:nonzero;"/></g></g></svg>