<?xml version="1.0" encoding="utf-8"?>
<!-- Generator: Adobe Illustrator 18.1.1, SVG Export Plug-In . SVG Version: 6.00 Build 0)  -->
<svg version="1.1" id="Layer_1" xmlns="http://www.w3.org/2000/svg" xmlns:xlink="http://www.w3.org/1999/xlink" x="0px" y="0px"
	 viewBox="0 0 15000 10000" enable-background="new 0 0 15000 10000" xml:space="preserve">
<rect y="6666.7" fill="#DA121A" width="15000" height="3333.3"/>
<rect y="3333.3" fill="#FCDD09" width="15000" height="3333.3"/>
<rect y="0" fill="#078930" width="15000" height="3333.3"/>
<circle fill="#0F47AF" cx="7500" cy="5000" r="3265.1"/>
<path fill="#FCDD09" d="M7500,2387.9l-114.4,352.2l472,1452.7h-629.3l-70.7,217.7h2017.9l299.6-217.7H8086.4L7500,2387.9z"/>
<path stroke="#FCDD09" stroke-width="4" d="M8203.7,4031.5l831.6-1144.6"/>
<path fill="#FCDD09" d="M9984.2,4192.8h-370.3l-1235.7,897.8l-194.5-598.5h-228.9l623.6,1919.1l299.6,217.7l-429.1-1320.6
	L9984.2,4192.8z"/>
<path stroke="#FCDD09" stroke-width="4" d="M8638.6,5370l1345.6,437.2"/>
<path fill="#FCDD09" d="M9035.3,7113.2L8920.9,6761l-1235.7-897.8l509.1-369.9l-70.7-217.7L6491.1,6461.7l-114.4,352.2L7500,5997.7
	L9035.3,7113.2z"/>
<path stroke="#FCDD09" stroke-width="4" d="M7500,6197.2v1414.9"/>
<path fill="#FCDD09" d="M5964.7,7113.2l299.6-217.7l472-1452.7l509.1,369.9l185.2-134.5L5798.1,4492.1h-370.3l1123.4,816.2
	L5964.7,7113.2z"/>
<path stroke="#FCDD09" stroke-width="4" d="M6361.4,5370l-1345.6,437.2"/>
<path fill="#FCDD09" d="M5015.8,4192.8l299.6,217.7h1527.4L6648.4,5009l185.2,134.5l623.6-1919.1l-114.4-352.2l-429.1,1320.6H5015.8
	z"/>
<path stroke="#FCDD09" stroke-width="4" d="M6796.3,4031.5l-831.6-1144.6"/>
</svg>
