<?xml version="1.0" encoding="UTF-8" standalone="no"?><!DOCTYPE svg PUBLIC "-//W3C//DTD SVG 1.1//EN" "http://www.w3.org/Graphics/SVG/1.1/DTD/svg11.dtd"><svg width="100%" height="100%" viewBox="0 0 3750 2500" version="1.1" xmlns="http://www.w3.org/2000/svg" xmlns:xlink="http://www.w3.org/1999/xlink" xml:space="preserve" xmlns:serif="http://www.serif.com/" style="fill-rule:evenodd;clip-rule:evenodd;stroke-linejoin:round;stroke-miterlimit:2;"><rect x="0" y="0" width="3750" height="2500" style="fill:#fff;"/><rect x="0" y="0" width="3750" height="750"/><rect x="0" y="875" width="3750" height="750" style="fill:#b00;"/><rect x="0" y="1750" width="3750" height="750" style="fill:#060;"/><g><g id="spear"><path id="spearshape" d="M1428.46,1992.19l27.063,15.625l729.888,-1264.2c42.688,-11.438 66.125,-52.033 89.563,-92.628c15.625,-27.064 78.125,-135.317 105.211,-275.982c-108.276,93.79 -170.776,202.043 -186.401,229.107c-23.437,40.595 -46.875,81.19 -35.437,123.878l-729.887,1264.2Z" style="fill-rule:nonzero;"/><path id="spearshape1" serif:id="spearshape" d="M1428.46,1992.19l27.063,15.625l729.888,-1264.2c42.688,-11.438 66.125,-52.033 89.563,-92.628c15.625,-27.064 78.125,-135.317 105.211,-275.982c-108.276,93.79 -170.776,202.043 -186.401,229.107c-23.437,40.595 -46.875,81.19 -35.437,123.878l-729.887,1264.2Z" style="fill:#fff;fill-rule:nonzero;"/></g><g id="spear1" serif:id="spear"><path id="spearshape2" serif:id="spearshape" d="M2321.54,1992.19l-27.063,15.625l-729.888,-1264.2c-42.688,-11.438 -66.125,-52.033 -89.563,-92.628c-15.625,-27.064 -78.125,-135.317 -105.211,-275.982c108.276,93.79 170.776,202.043 186.401,229.107c23.437,40.595 46.875,81.19 35.437,123.878l729.887,1264.2Z" style="fill-rule:nonzero;"/><path id="spearshape3" serif:id="spearshape" d="M2321.54,1992.19l-27.063,15.625l-729.888,-1264.2c-42.688,-11.438 -66.125,-52.033 -89.563,-92.628c-15.625,-27.064 -78.125,-135.317 -105.211,-275.982c108.276,93.79 170.776,202.043 186.401,229.107c23.437,40.595 46.875,81.19 35.437,123.878l729.887,1264.2Z" style="fill:#fff;fill-rule:nonzero;"/></g><path d="M1578.12,1625c46.875,125 203.125,375 296.875,375c93.75,0 250,-250 296.875,-375l0,-750c-46.875,-125 -203.125,-375 -296.875,-375c-93.75,0 -250,250 -296.875,375l0,750Z" style="fill:#b00;fill-rule:nonzero;"/><path id="deco_r" d="M2171.88,1625c46.875,-125 78.125,-250 78.125,-375c0,-125 -31.25,-250 -78.125,-375c-46.875,125 -78.125,250 -78.125,375c0,125 31.25,250 78.125,375Z" style="fill-rule:nonzero;"/><path id="deco_r1" serif:id="deco_r" d="M1578.12,1625c-46.875,-125 -78.125,-250 -78.125,-375c0,-125 31.25,-250 78.125,-375c46.875,125 78.125,250 78.125,375c0,125 -31.25,250 -78.125,375Z" style="fill-rule:nonzero;"/><g><ellipse cx="1875" cy="1250" rx="62.5" ry="93.75" style="fill:#fff;"/><path id="deco_br" d="M1890.62,1341.41c0,0 62.5,125 62.5,328.125c0,203.125 -62.5,328.125 -62.5,328.125l0,-656.25Z" style="fill:#fff;fill-rule:nonzero;"/><path id="deco_br1" serif:id="deco_br" d="M1859.38,1158.59c0,0 -62.5,-125 -62.5,-328.125c0,-203.125 62.5,-328.125 62.5,-328.125l0,656.25Z" style="fill:#fff;fill-rule:nonzero;"/><path id="deco_br2" serif:id="deco_br" d="M1859.38,1341.41c0,0 -62.5,125 -62.5,328.125c0,203.125 62.5,328.125 62.5,328.125l0,-656.25Z" style="fill:#fff;fill-rule:nonzero;"/><path id="deco_br3" serif:id="deco_br" d="M1890.62,1158.59c0,0 62.5,-125 62.5,-328.125c0,-203.125 -62.5,-328.125 -62.5,-328.125l0,656.25Z" style="fill:#fff;fill-rule:nonzero;"/></g></g></svg>