<svg viewBox="0 0 327 408" xmlns="http://www.w3.org/2000/svg" fill-rule="evenodd" clip-rule="evenodd" stroke-linejoin="round"><g fill="#4d4d4d"><path d="M326.937 244.122c0 89.677-73.793 163.471-163.47 163.471-89.677 0-163.471-73.794-163.471-163.471S73.79 80.652 163.467 80.652s163.47 73.793 163.47 163.47z" fill-rule="nonzero"/><path d="M182.257 72.518c0-8.13-6.601-14.731-14.731-14.731h-8.127c-8.131 0-14.731 6.601-14.731 14.731v2.758c0 8.13 6.6 14.731 14.731 14.731h8.127c8.13 0 14.731-6.601 14.731-14.731v-2.758z"/><path d="M191.923 51.865c0-8.604-6.986-15.59-15.59-15.59h-25.741c-8.605 0-15.59 6.986-15.59 15.59s6.985 15.59 15.59 15.59h25.741c8.604 0 15.59-6.986 15.59-15.59z"/></g><path d="M206.613 27.711c0-11.855-9.624-21.48-21.48-21.48h-40.812c-11.855 0-21.48 9.625-21.48 21.48s9.625 21.48 21.48 21.48h40.812c11.856 0 21.48-9.625 21.48-21.48z" fill="none" stroke="#4d4d4d" stroke-width="12.44"/><path d="M299.79 244.122c0 74.785-61.539 136.323-136.323 136.323-74.785 0-136.323-61.538-136.323-136.323 0-74.784 61.538-136.323 136.323-136.323 74.784 0 136.323 61.539 136.323 136.323z" fill="#fff" fill-rule="nonzero"/><path d="M171.488 124.76a8.023 8.023 0 00-8.019-8.019 8.023 8.023 0 00-8.019 8.019v16.038a8.023 8.023 0 008.019 8.019 8.023 8.023 0 008.019-8.019V124.76zM171.488 344.366a8.023 8.023 0 00-8.019-8.019 8.023 8.023 0 00-8.019 8.019v16.039a8.023 8.023 0 008.019 8.019 8.023 8.023 0 008.019-8.019v-16.039zM44.417 236.092a8.023 8.023 0 00-8.019 8.019 8.023 8.023 0 008.019 8.019h16.038a8.023 8.023 0 008.019-8.019 8.023 8.023 0 00-8.019-8.019H44.417zM260.314 236.092a8.023 8.023 0 00-8.019 8.019 8.023 8.023 0 008.019 8.019h16.039a8.023 8.023 0 008.019-8.019 8.023 8.023 0 00-8.019-8.019h-16.039z" fill="#4d4d4d"/><g fill="#4d4d4d"><path d="M222.927 144.212a2.349 2.349 0 00-4.068-2.349l-4.638 8.035a2.349 2.349 0 004.068 2.349l4.638-8.035zM262.991 187.683a2.35 2.35 0 00-2.349-4.068l-8.035 4.639a2.349 2.349 0 002.349 4.068l8.035-4.639zM222.927 340.874a2.35 2.35 0 01-4.068 2.349l-4.638-8.035a2.349 2.349 0 014.068-2.348l4.638 8.034zM262.991 297.403a2.35 2.35 0 01-2.349 4.068l-8.035-4.639a2.349 2.349 0 012.349-4.068l8.035 4.639zM104.128 340.874a2.35 2.35 0 004.068 2.349l4.639-8.035a2.35 2.35 0 00-4.068-2.348l-4.639 8.034zM64.082 297.403a2.35 2.35 0 002.349 4.068l8.035-4.639a2.35 2.35 0 00.86-3.208 2.35 2.35 0 00-3.209-.86l-8.035 4.639zM104.128 144.962a2.35 2.35 0 014.068-2.349l4.639 8.035a2.35 2.35 0 01-4.068 2.349l-4.639-8.035zM64.082 188.434a2.35 2.35 0 012.349-4.069l8.035 4.639a2.351 2.351 0 01.86 3.209 2.35 2.35 0 01-3.209.859l-8.035-4.638z"/></g><path d="M163.947 152.891c-3.368.018-6.787.192-10.242.559a2.829 2.829 0 00-2.477 1.64 2.822 2.822 0 00.314 2.948 2.804 2.804 0 002.756 1.064c26.136-2.809 49.323 5.078 68.306 23.257a2.857 2.857 0 002.861.908 2.872 2.872 0 002.094-2.181c.209-1.065-.175-2.164-1.03-2.827-17.569-16.819-38.977-25.455-62.582-25.368z" fill="url(#_Linear1)" fill-rule="nonzero"/><path d="M172.251 169.675a2.866 2.866 0 00-2.442 2.879 2.856 2.856 0 002.547 2.774c14.533 1.885 26.171 7.206 37.145 16.924 1.169 1.047 2.983.925 4.013-.244a2.848 2.848 0 00-.245-4.031c-11.707-10.381-24.652-16.295-40.163-18.302a2.363 2.363 0 00-.855 0z" fill="url(#_Linear2)" fill-rule="nonzero"/><path d="M161.661 137.451c-9.456.261-19.07 1.814-28.631 4.658a2.844 2.844 0 00-2.093 2.076 2.863 2.863 0 00.855 2.827 2.87 2.87 0 002.896.54c36.412-10.852 72.632-1.779 99.64 24.95a2.865 2.865 0 004.048-.018c1.116-1.116 1.099-2.931-.018-4.047-21.285-21.059-48.363-31.754-76.697-30.986z" fill="url(#_Linear3)" fill-rule="nonzero"/><path d="M259.085 95.665l-5.565 22.001 21.599 16.662 20.832-12.178c0-10.8-27.619-29.556-36.866-26.485z" fill="#4d4d4d"/><path d="M258.859 166.221c-1.92-2.198-118.309 92.225-118.309 92.225l4.432 5.548s115.778-95.592 113.877-97.773z" fill="#1a1a1a"/><defs><linearGradient id="_Linear1" x1="0" y1="0" x2="1" y2="0" gradientUnits="userSpaceOnUse" gradientTransform="rotate(180 108.273 97.679) scale(74.4312)"><stop offset="0" stop-color="#a00"/><stop offset="1" stop-color="#a00" stop-opacity="0"/></linearGradient><linearGradient id="_Linear2" x1="0" y1="0" x2="1" y2="0" gradientUnits="userSpaceOnUse" gradientTransform="rotate(180 108.273 97.679) scale(74.4312)"><stop offset="0" stop-color="#a00"/><stop offset="1" stop-color="#a00" stop-opacity="0"/></linearGradient><linearGradient id="_Linear3" x1="0" y1="0" x2="1" y2="0" gradientUnits="userSpaceOnUse" gradientTransform="rotate(180 108.273 97.679) scale(74.4312)"><stop offset="0" stop-color="#a00"/><stop offset="1" stop-color="#a00" stop-opacity="0"/></linearGradient></defs></svg>